<?xml version="1.0" encoding="UTF-8" standalone="no"?>
<!DOCTYPE svg PUBLIC "-//W3C//DTD SVG 1.1//EN" "http://www.w3.org/Graphics/SVG/1.1/DTD/svg11.dtd">
<svg width="100%" height="100%" viewBox="0 0 500 500" version="1.1" xmlns="http://www.w3.org/2000/svg" xmlns:xlink="http://www.w3.org/1999/xlink" xml:space="preserve" xmlns:serif="http://www.serif.com/" style="fill-rule:evenodd;clip-rule:evenodd;stroke-linejoin:round;stroke-miterlimit:2;">
    <g>
        <rect x="0" y="0" width="500" height="500" style="fill:rgb(156,212,217);fill-rule:nonzero;"/>
        <path d="M311.835,236.006C311.835,245.44 284.15,253.089 250,253.089C215.85,253.089 188.165,245.44 188.165,236.006C188.165,226.571 215.85,218.923 250,218.923C284.15,218.923 311.835,226.571 311.835,236.006Z" style="fill:rgb(131,193,199);fill-rule:nonzero;"/>
        <path d="M311.835,454.619C311.835,464.054 284.15,471.702 250,471.702C215.85,471.702 188.165,464.054 188.165,454.619C188.165,445.185 215.85,437.536 250,437.536C284.15,437.536 311.835,445.185 311.835,454.619Z" style="fill:rgb(131,193,199);fill-rule:nonzero;"/>
        <path d="M143.361,461.993C143.361,467.91 125.999,472.706 104.581,472.706C83.163,472.706 65.801,467.91 65.801,461.993C65.801,456.076 83.163,451.279 104.581,451.279C125.999,451.279 143.361,456.076 143.361,461.993Z" style="fill:rgb(131,193,199);fill-rule:nonzero;"/>
        <path d="M458.953,458.619C458.953,467.269 433.573,474.28 402.267,474.28C370.96,474.28 345.581,467.269 345.581,458.619C345.581,449.971 370.96,442.959 402.267,442.959C433.573,442.959 458.953,449.971 458.953,458.619Z" style="fill:rgb(131,193,199);fill-rule:nonzero;"/>
        <path d="M163.675,239.006C163.675,248.44 135.991,256.089 101.84,256.089C67.689,256.089 40.004,248.44 40.004,239.006C40.004,229.571 67.689,221.923 101.84,221.923C135.991,221.923 163.675,229.571 163.675,239.006Z" style="fill:rgb(131,193,199);fill-rule:nonzero;"/>
        <path d="M459.953,240.006C459.953,249.02 433.502,256.327 400.873,256.327C368.245,256.327 341.794,249.02 341.794,240.006C341.794,230.992 368.245,223.684 400.873,223.684C433.502,223.684 459.953,230.992 459.953,240.006Z" style="fill:rgb(131,193,199);fill-rule:nonzero;"/>
        <path d="M207.236,165.273C207.236,165.273 205.127,190.156 219.064,213.5L232.72,213.5C232.72,213.5 233.916,194.961 252.207,179.547L207.236,165.273Z" style="fill:rgb(102,4,12);fill-rule:nonzero;"/>
        <path d="M294.001,165.273C294.001,165.273 296.109,190.156 282.173,213.5L268.518,213.5C268.518,213.5 267.321,194.961 249.03,179.547L294.001,165.273Z" style="fill:rgb(102,4,12);fill-rule:nonzero;"/>
        <path d="M268.518,211.948C268.698,211.021 268.683,218.778 266.684,225.326C266.009,227.538 266.93,229.921 268.963,231.024C275.975,234.83 290.967,242.437 296.094,240.883C302.876,238.828 281.401,224.441 281.401,224.441L283.763,211.948L268.518,211.948Z" style="fill:rgb(61,5,4);fill-rule:nonzero;"/>
        <path d="M270.155,218.39L281.751,218.39C284.439,218.39 286.64,216.189 286.64,213.5L286.64,211.651C286.64,209.979 285.272,208.611 283.601,208.611L268.306,208.611C266.634,208.611 265.267,209.979 265.267,211.651L265.267,213.5C265.267,216.189 267.467,218.39 270.155,218.39Z" style="fill:rgb(246,246,246);fill-rule:nonzero;"/>
        <path d="M177.209,124.029C172.789,138.169 185.921,151.367 196.853,151.367C197.491,148.001 201.894,140.659 202.727,137.333C202.727,137.333 197.775,136.411 199.156,131.739C201.117,125.103 214.558,125.012 214.558,125.012L222.065,97.788C222.065,97.788 185.231,98.365 177.209,124.029Z" style="fill:rgb(166,7,19);fill-rule:nonzero;"/>
        <path d="M322.791,124.029C327.211,138.169 314.079,151.367 303.147,151.367C302.509,148.001 298.105,140.659 297.273,137.333C297.273,137.333 302.225,136.411 300.844,131.739C298.883,125.103 285.441,125.012 285.441,125.012L277.935,97.788C277.935,97.788 314.769,98.365 322.791,124.029Z" style="fill:rgb(166,7,19);fill-rule:nonzero;"/>
        <path d="M250.619,182.328C216.615,182.328 195.95,167.429 195.95,167.429L205.417,125.387C211.453,106.244 229.259,94.01 246.308,94.01L254.93,94.01C271.978,94.01 289.784,106.244 295.82,125.387L305.287,167.429C305.287,167.429 284.622,182.328 250.619,182.328Z" style="fill:rgb(211,10,25);fill-rule:nonzero;"/>
        <path d="M250.619,183.01C248.633,183.01 247.009,181.385 247.009,179.4L247.009,121.6C247.009,119.615 248.633,117.99 250.619,117.99C252.604,117.99 254.229,119.615 254.229,121.6L254.229,179.4C254.229,181.385 252.604,183.01 250.619,183.01Z" style="fill:rgb(224,224,224);fill-rule:nonzero;"/>
        <path d="M250.619,161.254C225.555,161.254 207.754,153.166 200.12,148.911L197.775,159.321C203.5,162.843 222.488,173.034 250.619,173.034C278.749,173.034 297.737,162.843 303.462,159.321L301.117,148.911C293.482,153.166 275.682,161.254 250.619,161.254Z" style="fill:rgb(92,7,6);fill-rule:nonzero;"/>
        <path d="M219.469,92.218C215.987,92.218 213.139,89.369 213.139,85.888L213.139,81.865C213.139,78.383 215.987,75.535 219.469,75.535C222.951,75.535 225.799,78.383 225.799,81.865L225.799,85.888C225.799,89.369 222.951,92.218 219.469,92.218Z" style="fill:rgb(227,171,150);fill-rule:nonzero;"/>
        <path d="M282.297,92.218L282.296,92.218C278.814,92.218 275.966,89.369 275.966,85.888L275.966,81.865C275.966,78.383 278.814,75.535 282.296,75.535L282.297,75.535C285.778,75.535 288.627,78.383 288.627,81.865L288.627,85.888C288.627,89.369 285.778,92.218 282.297,92.218Z" style="fill:rgb(227,171,150);fill-rule:nonzero;"/>
        <path d="M222.467,64.087C222.467,64.087 218.459,33.805 248.296,25.343C278.134,16.882 297.729,41.821 297.729,54.29L294.166,55.181C294.166,55.181 285.099,42.94 279.024,43.857C266.653,45.725 282.297,67.822 282.297,67.822L222.467,64.087Z" style="fill:rgb(211,10,25);fill-rule:nonzero;"/>
        <path d="M285.158,67.924C285.158,78.989 269.813,87.958 250.883,87.958C231.953,87.958 216.607,78.989 216.607,67.924C216.607,56.859 231.953,52.124 250.883,52.124C269.813,52.124 285.158,56.859 285.158,67.924Z" style="fill:rgb(246,246,246);fill-rule:nonzero;"/>
        <path d="M258.273,107.898L243.491,107.898C230.279,107.898 219.469,97.088 219.469,83.876L219.469,80.46C219.469,69.126 228.741,59.854 240.075,59.854L261.69,59.854C273.023,59.854 282.297,69.126 282.297,80.46L282.297,83.876C282.297,97.088 271.486,107.898 258.273,107.898Z" style="fill:rgb(255,194,171);fill-rule:nonzero;"/>
        <path d="M260.888,86.096L240.877,86.096C223.682,86.096 209.613,83.462 209.613,100.657C209.613,111.739 215.462,121.515 224.22,127.071C225.174,135.599 231.377,142.6 239.502,144.738C240.722,149.895 245.367,153.767 250.883,153.767C256.398,153.767 261.044,149.895 262.263,144.738C270.388,142.6 276.592,135.599 277.545,127.071C286.303,121.515 292.151,111.739 292.151,100.657C292.151,83.462 278.083,86.096 260.888,86.096Z" style="fill:rgb(246,246,246);fill-rule:nonzero;"/>
        <path d="M251.324,94.261C251.324,94.261 248.208,105.596 234.403,103.561C220.598,101.526 224.231,84.961 224.231,84.961C224.231,84.961 238.166,89.756 247.45,87.431L251.324,94.261Z" style="fill:rgb(224,224,224);fill-rule:nonzero;"/>
        <path d="M250.441,94.261C250.441,94.261 253.557,105.596 267.362,103.561C281.167,101.526 277.534,84.961 277.534,84.961C277.534,84.961 263.599,89.756 254.314,87.431L250.441,94.261Z" style="fill:rgb(224,224,224);fill-rule:nonzero;"/>
        <path d="M251.324,91.225C251.324,91.225 248.208,102.559 234.403,100.524C220.598,98.491 224.231,81.924 224.231,81.924C224.231,81.924 238.166,86.72 247.45,84.395L251.324,91.225Z" style="fill:rgb(246,246,246);fill-rule:nonzero;"/>
        <path d="M250.441,91.225C250.441,91.225 253.557,102.559 267.362,100.524C281.167,98.491 277.534,81.924 277.534,81.924C277.534,81.924 263.599,86.72 254.314,84.395L250.441,91.225Z" style="fill:rgb(246,246,246);fill-rule:nonzero;"/>
        <path d="M250.883,94.383C247.907,94.383 245.472,91.949 245.472,88.973L245.472,78.78C245.472,75.804 247.907,73.369 250.883,73.369C253.858,73.369 256.293,75.804 256.293,78.78L256.293,88.973C256.293,91.949 253.858,94.383 250.883,94.383Z" style="fill:rgb(227,159,134);fill-rule:nonzero;"/>
        <path d="M231.591,79.916C231.591,78.94 231.983,78.066 232.622,77.426C233.263,76.787 234.137,76.395 235.112,76.394C236.088,76.395 236.962,76.787 237.602,77.426C238.241,78.066 238.633,78.94 238.634,79.916C238.634,80.468 239.081,80.916 239.634,80.916C240.186,80.916 240.634,80.468 240.634,79.916C240.633,76.866 238.162,74.395 235.112,74.394C232.063,74.395 229.591,76.866 229.591,79.916C229.591,80.468 230.039,80.916 230.591,80.916C231.143,80.916 231.591,80.468 231.591,79.916Z" style="fill:rgb(95,79,85);fill-rule:nonzero;"/>
        <path d="M263.283,79.916C263.284,78.94 263.676,78.066 264.315,77.426C264.955,76.787 265.829,76.395 266.805,76.394C267.78,76.395 268.654,76.787 269.295,77.426C269.934,78.066 270.326,78.94 270.326,79.916C270.326,80.468 270.774,80.916 271.326,80.916C271.878,80.916 272.326,80.468 272.326,79.916C272.326,76.866 269.854,74.395 266.805,74.394C263.755,74.395 261.284,76.866 261.282,79.916C261.282,80.468 261.73,80.916 262.283,80.916C262.835,80.916 263.283,80.468 263.283,79.916Z" style="fill:rgb(95,79,85);fill-rule:nonzero;"/>
        <path d="M240.358,69.743C240.53,71.12 238.056,70.407 235.159,70.77C232.262,71.133 230.04,72.435 229.868,71.059C229.695,69.682 231.903,68.271 234.8,67.908C237.697,67.545 240.185,68.366 240.358,69.743Z" style="fill:rgb(246,246,246);fill-rule:nonzero;"/>
        <path d="M261.407,69.743C261.234,71.12 263.709,70.407 266.606,70.77C269.503,71.133 271.725,72.435 271.897,71.059C272.07,69.682 269.862,68.271 266.965,67.908C264.068,67.545 261.579,68.366 261.407,69.743Z" style="fill:rgb(246,246,246);fill-rule:nonzero;"/>
        <path d="M302.365,55.222C302.365,54.192 301.659,53.327 300.711,53.062C301.194,52.204 301.081,51.093 300.353,50.365C299.624,49.636 298.514,49.523 297.656,50.007C297.392,49.059 296.526,48.353 295.496,48.353C294.466,48.353 293.601,49.058 293.336,50.007C292.478,49.523 291.367,49.636 290.639,50.365C289.91,51.093 289.797,52.204 290.281,53.062C289.332,53.327 288.627,54.192 288.627,55.222C288.627,56.252 289.332,57.118 290.281,57.382C289.797,58.24 289.91,59.351 290.639,60.079C291.367,60.808 292.478,60.921 293.336,60.437C293.601,61.386 294.466,62.091 295.496,62.091C296.526,62.091 297.392,61.386 297.656,60.437C298.514,60.921 299.624,60.808 300.353,60.079C301.081,59.351 301.194,58.24 300.711,57.382C301.659,57.118 302.365,56.252 302.365,55.222Z" style="fill:rgb(246,246,246);fill-rule:nonzero;"/>
        <path d="M250.618,186.597C215.639,186.597 194.343,171.532 193.453,170.891C191.541,169.512 191.108,166.844 192.487,164.932C193.864,163.02 196.531,162.586 198.446,163.966C198.635,164.102 218.545,178.06 250.618,178.06C282.87,178.06 302.596,164.107 302.791,163.966C304.703,162.587 307.372,163.02 308.75,164.932C310.129,166.844 309.696,169.512 307.784,170.891C306.895,171.532 285.599,186.597 250.618,186.597Z" style="fill:rgb(246,246,246);fill-rule:nonzero;"/>
        <path d="M256.954,170.963C256.954,171.368 256.627,171.696 256.221,171.696L245.016,171.696C244.611,171.696 244.283,171.368 244.283,170.963L244.283,162.38C244.283,161.975 244.611,161.646 245.016,161.646L256.221,161.646C256.627,161.646 256.954,161.975 256.954,162.38L256.954,170.963ZM258.332,159.437L242.905,159.437C242.334,159.437 241.871,159.899 241.871,160.47L241.871,172.873C241.871,173.443 242.334,173.907 242.905,173.907L258.332,173.907C258.903,173.907 259.366,173.443 259.366,172.873L259.366,160.47C259.366,159.899 258.903,159.437 258.332,159.437Z" style="fill:rgb(255,180,24);fill-rule:nonzero;"/>
        <path d="M259.32,168.07L252.018,168.07C251.248,168.07 250.619,167.441 250.619,166.671C250.619,165.902 251.248,165.273 252.018,165.273L259.32,165.273C260.09,165.273 260.719,165.902 260.719,166.671C260.719,167.441 260.09,168.07 259.32,168.07Z" style="fill:rgb(255,180,24);fill-rule:nonzero;"/>
        <path d="M232.72,211.948C232.539,211.021 232.555,218.778 234.553,225.326C235.229,227.538 234.308,229.921 232.274,231.024C225.262,234.83 210.271,242.437 205.144,240.883C198.361,238.828 219.835,224.441 219.835,224.441L217.475,211.948L232.72,211.948Z" style="fill:rgb(61,5,4);fill-rule:nonzero;"/>
        <path d="M231.082,218.39L219.486,218.39C216.797,218.39 214.597,216.189 214.597,213.5L214.597,211.651C214.597,209.979 215.965,208.611 217.637,208.611L232.931,208.611C234.603,208.611 235.971,209.979 235.971,211.651L235.971,213.5C235.971,216.189 233.771,218.39 231.082,218.39Z" style="fill:rgb(246,246,246);fill-rule:nonzero;"/>
        <path d="M199.205,138.169C199.421,138 199.905,137.757 200.164,137.703C201.5,137.422 205.985,136.664 210.261,138.059C215.358,139.721 217.263,140.797 216.268,142.948C215.272,145.1 207.15,141.222 205.509,141.694C203.867,142.166 204.645,143.378 205.768,143.604C206.891,143.829 217.254,145.198 216.522,147.838C215.791,150.479 206.373,148.132 205.509,147.838C204.645,147.545 203.315,148.614 204.175,149.104C205.035,149.594 213.717,151.555 213.717,153.413C213.717,155.271 206.631,153.904 203.262,152.826C200.993,152.099 201.793,153.51 202.657,153.804C203.521,154.097 209.502,156.273 209.762,157.251C210.021,158.229 207.15,159.476 202.398,157.325C197.646,155.173 195.721,150.662 195.721,150.662C195.721,150.662 192.359,143.527 199.205,138.169Z" style="fill:rgb(255,194,171);fill-rule:nonzero;"/>
        <path d="M300.795,138.169C300.579,138 300.095,137.757 299.836,137.703C298.501,137.422 294.015,136.664 289.739,138.059C284.642,139.721 282.737,140.797 283.732,142.948C284.728,145.1 292.85,141.222 294.491,141.694C296.133,142.166 295.355,143.378 294.232,143.604C293.108,143.829 282.746,145.198 283.478,147.838C284.209,150.479 293.627,148.132 294.491,147.838C295.355,147.545 296.685,148.614 295.824,149.104C294.965,149.594 286.283,151.555 286.283,153.413C286.283,155.271 293.368,153.904 296.737,152.826C299.007,152.099 298.207,153.51 297.343,153.804C296.479,154.097 290.498,156.273 290.238,157.251C289.979,158.229 292.85,159.476 297.602,157.325C302.354,155.173 304.278,150.662 304.278,150.662C304.278,150.662 307.641,143.527 300.795,138.169Z" style="fill:rgb(255,194,171);fill-rule:nonzero;"/>
        <path d="M204.617,381.282C203.959,389.047 206.833,417.735 217.446,435.51L231.101,435.51C230.038,451.987 235.026,407.827 249.588,395.557L204.617,381.282Z" style="fill:rgb(102,4,12);fill-rule:nonzero;"/>
        <path d="M291.382,381.282C292.703,396.87 294.837,408.912 279.554,434.51L265.898,434.51C266.655,446.234 266.613,412.58 246.412,395.557L291.382,381.282Z" style="fill:rgb(102,4,12);fill-rule:nonzero;"/>
        <path d="M266.898,432.958C267.079,432.03 266.063,434.788 264.065,441.335C263.39,443.547 264.311,445.93 266.344,447.033C273.356,450.839 288.348,458.445 293.475,456.892C300.257,454.837 278.782,440.451 278.782,440.451L282.144,432.958L266.898,432.958Z" style="fill:rgb(61,5,4);fill-rule:nonzero;"/>
        <path d="M267.536,439.399L279.132,439.399C281.82,439.399 284.021,437.199 284.021,434.51L284.021,432.66C284.021,430.988 282.653,429.62 280.981,429.62L265.687,429.62C264.015,429.62 262.647,430.988 262.647,432.66L262.647,434.51C262.647,437.199 264.848,439.399 267.536,439.399Z" style="fill:rgb(246,246,246);fill-rule:nonzero;"/>
        <path d="M248,421.609C213.996,421.609 193.331,411.308 193.331,411.308L202.798,353.383C208.834,327.008 226.64,310.151 243.688,310.151L252.311,310.151C269.359,310.151 287.165,327.008 293.201,353.383L302.669,411.308C302.669,411.308 282.003,421.609 248,421.609Z" style="fill:rgb(211,10,25);fill-rule:nonzero;"/>
        <path d="M275.849,332.997C269.884,323.662 273.284,314.827 273.284,314.827L267.348,314.827C266.933,327.994 258.846,338.499 248.926,338.499C239.005,338.499 230.918,327.994 230.503,314.827L224.567,314.827C224.567,314.827 227.967,323.662 222.003,332.997C216.039,342.331 206.071,369.946 209.392,403.591C209.392,403.591 220.359,411.175 248.926,411.175C277.492,411.175 288.459,403.591 288.459,403.591C291.78,369.946 281.813,342.331 275.849,332.997Z" style="fill:rgb(253,246,212);fill-rule:nonzero;"/>
        <path d="M228.92,317.757C228.92,317.757 199.679,317.846 192.713,340.438C185.511,363.799 224.291,368.791 235.371,369.252L237.374,357.515C237.374,357.515 218.199,353.025 214.951,349.178C208.615,341.672 217.644,337.211 228.92,317.757Z" style="fill:rgb(166,7,19);fill-rule:nonzero;"/>
        <path d="M238.689,363.687C238.078,368.27 235.976,371.771 233.994,371.507C232.012,371.242 230.901,367.313 231.513,362.729C232.124,358.146 234.226,354.645 236.208,354.908C238.19,355.173 239.301,359.103 238.689,363.687Z" style="fill:rgb(246,246,246);fill-rule:nonzero;"/>
        <path d="M238.366,356.843C238.577,356.743 238.16,356.925 238.366,356.843C239.434,356.423 242.826,356.061 246.271,356.583C250.379,357.205 251.555,357.208 251.343,358.803C251.213,359.789 244.994,359.751 242.884,359.909C241.52,360.012 242.027,360.823 242.931,360.845C243.834,360.867 251.619,361.144 251.605,362.75C251.592,364.335 244.574,364.349 242.921,364.313C242.201,364.297 241.165,364.487 241.861,364.763C242.556,365.039 249.828,365.979 249.422,367.694C249.059,369.226 243.745,369.112 241.03,368.718C239.202,368.452 240.271,369.156 240.951,369.322C242.132,369.609 246.076,370.63 246.295,371.389C246.515,372.148 243.986,372.646 240.098,372.014C237.656,371.617 236.529,370.32 235.712,369.233C235.188,368.535 234.815,367.725 234.598,366.838C234.016,364.469 233.387,359.214 238.366,356.843Z" style="fill:rgb(255,194,171);fill-rule:nonzero;"/>
        <path d="M267.606,317.757C267.606,317.757 296.849,317.846 303.814,340.438C311.017,363.799 272.236,368.791 261.156,369.252L259.153,357.515C259.153,357.515 278.328,353.025 281.576,349.178C287.912,341.672 278.883,337.211 267.606,317.757Z" style="fill:rgb(166,7,19);fill-rule:nonzero;"/>
        <path d="M257.838,363.687C258.449,368.27 260.552,371.771 262.533,371.507C264.515,371.242 265.626,367.313 265.015,362.729C264.403,358.146 262.301,354.645 260.319,354.908C258.338,355.173 257.226,359.103 257.838,363.687Z" style="fill:rgb(246,246,246);fill-rule:nonzero;"/>
        <path d="M258.161,356.843C257.95,356.743 258.367,356.925 258.161,356.843C257.092,356.423 253.701,356.061 250.256,356.583C246.148,357.205 244.973,357.208 245.184,358.803C245.315,359.789 251.533,359.751 253.643,359.909C255.008,360.012 254.5,360.823 253.597,360.845C252.693,360.867 244.909,361.144 244.922,362.75C244.935,364.335 251.953,364.349 253.606,364.313C254.326,364.297 255.362,364.487 254.666,364.763C253.971,365.039 246.699,365.979 247.105,367.694C247.468,369.226 252.782,369.112 255.497,368.718C257.325,368.452 256.256,369.156 255.576,369.322C254.395,369.609 250.452,370.63 250.232,371.389C250.013,372.148 252.541,372.646 256.43,372.014C258.872,371.617 259.997,370.32 260.814,369.233C261.338,368.535 261.712,367.725 261.93,366.838C262.512,364.469 263.141,359.214 258.161,356.843Z" style="fill:rgb(255,194,171);fill-rule:nonzero;"/>
        <path d="M248,425.108C213.568,425.108 192.643,414.876 191.769,414.44C190.039,413.578 189.336,411.477 190.198,409.746C191.06,408.017 193.161,407.312 194.892,408.175C195.088,408.272 215.336,418.108 248,418.108C280.8,418.108 300.908,408.274 301.107,408.175C302.84,407.312 304.94,408.017 305.802,409.746C306.664,411.477 305.96,413.578 304.23,414.44C303.356,414.876 282.431,425.108 248,425.108Z" style="fill:rgb(246,246,246);fill-rule:nonzero;"/>
        <path d="M248,379.691C227.187,379.691 211.207,374.097 201.595,369.508C200.038,368.765 198.206,369.717 197.939,371.421L196.924,377.88C196.755,378.961 197.279,380.03 198.245,380.543C207.228,385.308 224.547,392.41 248,392.41C271.452,392.41 288.771,385.308 297.754,380.543C298.721,380.03 299.244,378.961 299.075,377.88L298.061,371.421C297.793,369.717 295.961,368.765 294.404,369.508C284.793,374.097 268.813,379.691 248,379.691Z" style="fill:rgb(102,4,12);fill-rule:nonzero;"/>
        <path d="M216.85,310.227C213.368,310.227 210.52,307.378 210.52,303.896L210.52,299.874C210.52,296.393 213.368,293.544 216.85,293.544C220.332,293.544 223.18,296.393 223.18,299.874L223.18,303.896C223.18,307.378 220.332,310.227 216.85,310.227Z" style="fill:rgb(227,171,150);fill-rule:nonzero;"/>
        <path d="M279.678,310.227C276.195,310.227 273.347,307.378 273.347,303.896L273.347,299.874C273.347,296.393 276.195,293.544 279.678,293.544C283.159,293.544 286.008,296.393 286.008,299.874L286.008,303.896C286.008,307.378 283.159,310.227 279.678,310.227Z" style="fill:rgb(227,171,150);fill-rule:nonzero;"/>
        <path d="M276.405,256.951C277.467,256.646 278.636,256.822 279.84,257.309C280.796,253.419 281.424,255.376 282.137,251.432C273.487,244.433 260.924,240.028 245.677,244.352C215.84,252.813 216.85,281.141 216.85,281.141L279.678,278.612C279.678,278.612 269.288,258.987 276.405,256.951Z" style="fill:rgb(211,10,25);fill-rule:nonzero;"/>
        <path d="M282.539,284.933C282.539,295.997 267.193,304.968 248.264,304.968C229.334,304.968 213.988,295.997 213.988,284.933C213.988,273.868 229.334,269.133 248.264,269.133C267.193,269.133 282.539,273.868 282.539,284.933Z" style="fill:rgb(246,246,246);fill-rule:nonzero;"/>
        <path d="M255.655,325.907L240.872,325.907C227.66,325.907 216.85,315.098 216.85,301.885L216.85,298.469C216.85,287.136 226.123,277.863 237.456,277.863L259.071,277.863C270.405,277.863 279.678,287.136 279.678,298.469L279.678,301.885C279.678,315.098 268.867,325.907 255.655,325.907Z" style="fill:rgb(255,194,171);fill-rule:nonzero;"/>
        <path d="M248.264,307.985C245.991,307.985 244.131,306.126 244.131,303.853L244.131,297.677C244.131,295.403 245.991,293.544 248.264,293.544C250.537,293.544 252.396,295.403 252.396,297.677L252.396,303.853C252.396,306.126 250.537,307.985 248.264,307.985Z" style="fill:rgb(227,159,134);fill-rule:nonzero;"/>
        <path d="M228.972,296.925C228.972,295.949 229.364,295.075 230.003,294.435C230.644,293.796 231.518,293.404 232.493,293.403C233.469,293.404 234.343,293.796 234.983,294.435C235.622,295.075 236.014,295.949 236.015,296.925C236.015,297.477 236.462,297.925 237.015,297.925C237.567,297.925 238.015,297.477 238.015,296.925C238.014,293.875 235.543,291.404 232.493,291.403C229.443,291.404 226.972,293.875 226.972,296.925C226.972,297.477 227.419,297.925 227.972,297.925C228.524,297.925 228.972,297.477 228.972,296.925Z" style="fill:rgb(95,79,85);fill-rule:nonzero;"/>
        <path d="M260.513,296.925C260.513,295.949 260.905,295.075 261.544,294.435C262.185,293.796 263.059,293.404 264.034,293.403C265.01,293.404 265.884,293.796 266.524,294.435C267.163,295.075 267.555,295.949 267.556,296.925C267.556,297.477 268.003,297.925 268.556,297.925C269.108,297.925 269.556,297.477 269.556,296.925C269.555,293.875 267.084,291.404 264.034,291.403C260.984,291.404 258.513,293.875 258.513,296.925C258.513,297.477 258.959,297.925 259.513,297.925C260.065,297.925 260.513,297.477 260.513,296.925Z" style="fill:rgb(95,79,85);fill-rule:nonzero;"/>
        <path d="M237.739,287.752C237.912,289.129 235.437,288.416 232.54,288.779C229.643,289.143 227.421,290.444 227.249,289.067C227.076,287.69 229.284,286.28 232.181,285.917C235.078,285.554 237.566,286.375 237.739,287.752Z" style="fill:rgb(246,246,246);fill-rule:nonzero;"/>
        <path d="M258.788,287.752C258.616,289.129 261.091,288.416 263.987,288.779C266.884,289.143 269.106,290.444 269.278,289.067C269.451,287.69 267.243,286.28 264.346,285.917C261.449,285.554 258.961,286.375 258.788,287.752Z" style="fill:rgb(246,246,246);fill-rule:nonzero;"/>
        <path d="M290.791,255.02C290.791,253.989 290.086,253.124 289.137,252.86C289.621,252.002 289.508,250.892 288.779,250.163C288.051,249.434 286.94,249.321 286.082,249.805C285.817,248.856 284.952,248.151 283.922,248.151C282.892,248.151 282.026,248.856 281.762,249.805C280.904,249.321 279.794,249.434 279.064,250.163C278.336,250.892 278.224,252.002 278.707,252.86C277.759,253.124 277.053,253.989 277.053,255.02C277.053,256.051 277.759,256.916 278.707,257.18C278.224,258.038 278.336,259.149 279.064,259.878C279.794,260.606 280.904,260.719 281.762,260.235C282.026,261.184 282.892,261.889 283.922,261.889C284.952,261.889 285.817,261.184 286.082,260.235C286.94,260.719 288.051,260.606 288.779,259.878C289.508,259.149 289.621,258.038 289.137,257.18C290.086,256.916 290.791,256.051 290.791,255.02Z" style="fill:rgb(246,246,246);fill-rule:nonzero;"/>
        <path d="M231.101,432.958C230.92,432.03 229.936,434.788 231.934,441.335C232.609,443.547 231.688,445.93 229.656,447.033C222.643,450.839 207.651,458.445 202.524,456.892C195.743,454.837 217.216,440.451 217.216,440.451L215.855,432.958L231.101,432.958Z" style="fill:rgb(61,5,4);fill-rule:nonzero;"/>
        <path d="M229.238,439.399L217.643,439.399C214.954,439.399 212.753,437.199 212.753,434.51L212.753,432.66C212.753,430.988 214.122,429.62 215.793,429.62L231.087,429.62C232.759,429.62 234.127,430.988 234.127,432.66L234.127,434.51C234.127,437.199 231.927,439.399 229.238,439.399Z" style="fill:rgb(246,246,246);fill-rule:nonzero;"/>
        <path d="M238.247,302.933L237.247,302.933C237.246,304.247 236.715,305.432 235.854,306.294C234.993,307.154 233.807,307.685 232.493,307.686C231.179,307.685 229.994,307.154 229.132,306.294C228.271,305.432 227.74,304.247 227.74,302.933C227.74,301.618 228.271,300.433 229.132,299.571C229.994,298.71 231.179,298.179 232.493,298.179C233.807,298.179 234.993,298.71 235.854,299.571C236.715,300.433 237.246,301.618 237.247,302.933L238.247,302.933C238.246,299.755 235.671,297.179 232.493,297.179C229.315,297.179 226.74,299.755 226.74,302.933C226.74,306.11 229.316,308.685 232.493,308.686C235.671,308.685 238.246,306.11 238.247,302.933Z" style="fill:rgb(246,246,246);fill-rule:nonzero;"/>
        <path d="M269.787,302.933L268.787,302.933C268.787,304.247 268.256,305.432 267.395,306.294C266.533,307.154 265.348,307.685 264.034,307.686C262.72,307.685 261.535,307.154 260.673,306.294C259.812,305.432 259.281,304.247 259.281,302.933C259.281,301.618 259.812,300.433 260.673,299.571C261.535,298.71 262.72,298.179 264.034,298.179C265.348,298.179 266.533,298.71 267.395,299.571C268.256,300.433 268.787,301.618 268.787,302.933L269.787,302.933C269.787,299.755 267.212,297.179 264.034,297.179C260.855,297.179 258.282,299.755 258.281,302.933C258.282,306.11 260.857,308.685 264.034,308.686C267.212,308.685 269.787,306.11 269.787,302.933Z" style="fill:rgb(246,246,246);fill-rule:nonzero;"/>
        <path d="M238.067,303.316L238.103,303.287C238.51,302.962 242.244,300.139 247.916,300.143C250.944,300.144 254.535,300.938 258.522,303.36L259.04,302.505C254.91,299.993 251.12,299.142 247.916,299.143C241.501,299.148 237.474,302.512 237.426,302.549L238.067,303.316Z" style="fill:rgb(246,246,246);fill-rule:nonzero;"/>
        <path d="M238.673,311.664C240.079,315.271 243.866,317.763 248.264,317.766C252.662,317.763 256.449,315.271 257.854,311.664C258.053,311.149 257.798,310.57 257.282,310.37C256.768,310.171 256.189,310.427 255.989,310.942C254.936,313.684 251.909,315.768 248.264,315.766C244.619,315.768 241.591,313.684 240.539,310.942C240.339,310.427 239.76,310.171 239.245,310.37C238.73,310.57 238.474,311.149 238.673,311.664Z" style="fill:rgb(95,79,85);fill-rule:nonzero;"/>
        <path d="M248.264,273.978C255.521,273.606 258.781,276.502 258.781,276.502C258.781,276.502 270.47,271.398 273.965,280.299C273.965,280.299 282.135,281.927 279.678,290.607C279.678,290.607 283.038,301.559 279.654,302.933C276.271,304.306 274.643,289.686 274.643,289.686C274.643,289.686 267.861,287.949 265.691,281.141C265.691,281.141 262.912,286.054 248.264,282.141C233.616,286.054 230.836,281.141 230.836,281.141C228.666,287.949 221.885,289.686 221.885,289.686C221.885,289.686 220.257,304.306 216.873,302.933C213.489,301.559 216.85,290.607 216.85,290.607C214.392,281.927 222.563,280.299 222.563,280.299C226.057,271.398 237.747,276.502 237.747,276.502C237.747,276.502 241.006,273.606 248.264,273.978Z" style="fill:rgb(219,219,219);fill-rule:nonzero;"/>
        <path d="M126.073,85.849C126.073,85.849 123.431,72.344 143.981,64.123C143.981,64.123 154.55,98.473 129.595,96.418L126.073,85.849Z" style="fill:rgb(227,171,150);fill-rule:nonzero;"/>
        <path d="M77.133,85.849C77.133,85.849 79.776,72.344 59.225,64.123C59.225,64.123 48.656,98.473 73.61,96.418L77.133,85.849Z" style="fill:rgb(227,171,150);fill-rule:nonzero;"/>
        <path d="M74.915,158.385C74.915,158.385 72.53,201.642 83.398,229.583L94.267,229.583C94.267,229.583 82.468,188.759 102.046,185.938L74.915,158.385Z" style="fill:rgb(92,7,6);fill-rule:nonzero;"/>
        <path d="M129.175,158.385C129.175,158.385 131.562,201.642 120.693,229.583L109.825,229.583C109.825,229.583 121.623,188.759 102.046,185.938L129.175,158.385Z" style="fill:rgb(92,7,6);fill-rule:nonzero;"/>
        <path d="M120.693,229.583L109.825,229.583C109.825,229.583 106.715,232.053 106.746,237.085C106.758,239.238 108.557,240.957 110.709,240.957L135.213,240.957C135.213,240.957 153.054,241.437 153.054,227.465C153.054,209.537 136.486,215.735 136.486,221.913C136.486,221.913 144.61,216.32 144.273,224.763C143.935,233.207 120.693,229.583 120.693,229.583Z" style="fill:rgb(109,143,43);fill-rule:nonzero;"/>
        <path d="M111.139,231.385L122.484,230.274C124.294,230.047 125.664,228.812 125.664,227.511C125.664,226.21 124.294,225.151 122.484,225.158L111.866,225.158C108.91,225.169 107.75,226.768 107.75,228.667C107.75,230.565 108.184,231.755 111.139,231.385Z" style="fill:rgb(246,246,246);fill-rule:nonzero;"/>
        <path d="M75.073,156.532C75.073,156.532 67.461,186.621 101.259,186.621C135.056,186.621 129.396,156.532 129.396,156.532L75.073,156.532Z" style="fill:rgb(92,7,6);fill-rule:nonzero;"/>
        <path d="M154.858,81.334C156.372,90.798 153.054,102.627 147.325,106.038C128.89,117.013 112.338,104.525 112.338,104.525L105.225,118.616C105.225,118.616 110.551,138.092 144.324,128.011C169.38,120.533 170.849,95.139 169.012,80.297C164.3,80.717 159.584,81.09 154.858,81.334Z" style="fill:rgb(91,120,36);fill-rule:nonzero;"/>
        <path d="M68.908,150.136C69.72,146.861 71.005,143.894 72.493,141.606C72.783,141.161 73.073,140.71 73.364,140.258C80.095,129.808 82.891,117.304 81.237,104.984C76.354,106.141 67.506,111.491 62.88,118.854C56.162,129.55 53.182,139.59 52.638,148.695L68.908,150.136Z" style="fill:rgb(91,120,36);fill-rule:nonzero;"/>
        <path d="M101.26,173.717C81.454,173.717 69.205,163.356 69.205,163.356L75.461,125.428C79.777,107.697 88.127,106.878 98.609,106.878L103.912,106.878C114.394,106.878 122.744,107.697 127.06,125.428L133.316,163.356C133.316,163.356 121.066,173.717 101.26,173.717Z" style="fill:rgb(109,143,43);fill-rule:nonzero;"/>
        <path d="M104.214,128.488C104.214,129.93 103.045,131.099 101.604,131.099C100.162,131.099 98.992,129.93 98.992,128.488C98.992,127.046 100.162,125.877 101.604,125.877C103.045,125.877 104.214,127.046 104.214,128.488Z" style="fill:rgb(211,10,25);fill-rule:nonzero;"/>
        <path d="M104.214,137.708C104.214,139.149 103.045,140.318 101.604,140.318C100.162,140.318 98.992,139.149 98.992,137.708C98.992,136.266 100.162,135.097 101.604,135.097C103.045,135.097 104.214,136.266 104.214,137.708Z" style="fill:rgb(211,10,25);fill-rule:nonzero;"/>
        <path d="M104.214,147.395C104.214,148.837 103.045,150.005 101.604,150.005C100.162,150.005 98.992,148.837 98.992,147.395C98.992,145.953 100.162,144.785 101.604,144.785C103.045,144.785 104.214,145.953 104.214,147.395Z" style="fill:rgb(211,10,25);fill-rule:nonzero;"/>
        <path d="M101.26,177.077C80.801,177.077 67.362,167.822 66.784,167.417C65.157,166.276 64.593,164.071 65.541,162.484C66.498,160.882 68.621,160.535 70.262,161.713C70.378,161.796 82.688,170.381 101.26,170.381C119.833,170.381 132.143,161.796 132.268,161.707C133.912,160.541 136.031,160.895 136.98,162.496C137.921,164.083 137.36,166.279 135.737,167.417C135.158,167.822 121.72,177.077 101.26,177.077Z" style="fill:rgb(246,246,246);fill-rule:nonzero;"/>
        <path d="M101.261,154.682C86.585,154.682 75.826,149.324 71.897,147.034L69.858,159.394C74.994,162.206 86.228,167.199 101.26,167.199C116.293,167.199 127.526,162.206 132.663,159.394L130.623,147.033C126.687,149.328 115.931,154.682 101.261,154.682Z" style="fill:rgb(92,7,6);fill-rule:nonzero;"/>
        <path d="M52.638,148.695C52.116,157.427 53.835,165.298 56.645,172.059C61.073,170.394 65.517,168.773 70.005,167.274C67.518,161.839 67.563,155.564 68.908,150.136L52.638,148.695Z" style="fill:rgb(91,120,36);fill-rule:nonzero;"/>
        <path d="M56.445,168.597L67.694,164.009C69.09,163.439 70.698,164.116 71.267,165.512C71.836,166.907 71.16,168.515 69.764,169.084L58.515,173.672C57.119,174.242 55.511,173.565 54.942,172.169C54.373,170.774 55.049,169.166 56.445,168.597Z" style="fill:rgb(246,246,246);fill-rule:nonzero;"/>
        <path d="M62.171,169.173C65.393,167.721 68.929,168.101 72.146,171.454C75.363,174.808 78.401,174.182 78.856,176.016C79.31,177.85 74.885,177.989 72.324,176.413C72.324,176.413 79.022,185.442 77.575,188.075C76.129,190.709 70.681,180.299 70.681,180.299C70.681,180.299 75.823,191.175 73.528,192.52C71.234,193.864 67.28,183.148 67.28,183.148C67.28,183.148 69.592,190.89 67.359,191.673C65.127,192.456 63.294,182.125 63.294,182.125C63.294,182.125 64.126,189.437 62.57,189.911C61.014,190.386 53.782,172.577 62.171,169.173Z" style="fill:rgb(255,194,171);fill-rule:nonzero;"/>
        <path d="M113.736,104.984C111.408,104.984 109.335,106.066 107.984,107.75C106.383,106.054 104.12,104.989 101.604,104.989C98.884,104.989 96.455,106.226 94.844,108.166C93.513,106.245 91.296,104.984 88.782,104.984C84.709,104.984 81.407,108.286 81.407,112.359C81.407,116.432 84.709,119.733 88.782,119.733C90.718,119.733 92.475,118.98 93.791,117.76C95.245,120.599 98.194,122.546 101.604,122.546C104.849,122.546 107.676,120.78 109.195,118.162C110.448,119.143 112.021,119.733 113.736,119.733C117.809,119.733 121.11,116.432 121.11,112.359C121.11,108.286 117.809,104.984 113.736,104.984Z" style="fill:rgb(246,246,246);fill-rule:nonzero;"/>
        <path d="M128.132,74.681L128.132,74.217C128.132,61.297 117.562,50.725 104.641,50.725L98.565,50.725C85.645,50.725 75.073,61.297 75.073,74.217L75.073,74.681C71.549,78.827 69.413,84.184 69.413,90.019C69.413,103.08 80.1,113.768 93.162,113.768L110.044,113.768C123.106,113.768 133.793,103.08 133.793,90.019C133.793,84.184 131.657,78.827 128.132,74.681Z" style="fill:rgb(255,194,171);fill-rule:nonzero;"/>
        <path d="M112.398,84.026C112.398,82.775 112.859,81.658 113.58,80.864C114.305,80.069 115.263,79.605 116.318,79.604C117.374,79.605 118.333,80.069 119.057,80.864C119.778,81.658 120.239,82.775 120.239,84.026C120.239,84.579 120.686,85.026 121.239,85.026C121.791,85.026 122.239,84.579 122.239,84.026C122.238,82.283 121.598,80.689 120.538,79.52C119.482,78.352 117.98,77.603 116.318,77.604C114.656,77.603 113.155,78.352 112.099,79.52C111.039,80.689 110.399,82.283 110.398,84.026C110.398,84.579 110.846,85.026 111.398,85.026C111.951,85.026 112.398,84.579 112.398,84.026Z" style="fill:rgb(95,79,85);fill-rule:nonzero;"/>
        <path d="M128.132,75.114C128.132,62.193 117.562,51.622 104.641,51.622L98.565,51.622C85.645,51.622 75.073,62.193 75.073,75.114L75.073,75.577C75.073,75.577 99.738,79.006 110.014,61.492C110.014,61.492 110.521,73.335 128.132,75.114Z" style="fill:rgb(255,180,24);fill-rule:nonzero;"/>
        <path d="M75.073,61.025C75.073,61.025 77.547,40.709 101.604,29.967C101.604,29.967 121.456,38.841 129.396,61.025L75.073,61.025Z" style="fill:rgb(211,10,25);fill-rule:nonzero;"/>
        <path d="M101.604,64.995C118.42,64.995 128.132,75.114 128.132,75.114C128.132,75.114 132.892,69.899 131.022,61.492C129.155,53.085 112.349,50.283 101.604,50.283C90.857,50.283 74.051,53.085 72.183,61.492C70.315,69.899 75.073,75.114 75.073,75.114C75.073,75.114 84.786,64.995 101.604,64.995Z" style="fill:rgb(246,246,246);fill-rule:nonzero;"/>
        <path d="M108.609,29.967C108.609,33.836 105.472,36.973 101.604,36.973C97.734,36.973 94.597,33.836 94.597,29.967C94.597,26.098 97.734,22.961 101.604,22.961C105.472,22.961 108.609,26.098 108.609,29.967Z" style="fill:rgb(246,246,246);fill-rule:nonzero;"/>
        <path d="M82.687,84.026C82.687,82.775 83.148,81.658 83.869,80.864C84.593,80.069 85.552,79.605 86.607,79.604C87.663,79.605 88.621,80.069 89.346,80.864C90.067,81.658 90.528,82.775 90.528,84.026C90.528,84.579 90.976,85.026 91.528,85.026C92.08,85.026 92.528,84.579 92.528,84.026C92.528,82.283 91.887,80.688 90.827,79.52C89.771,78.352 88.269,77.603 86.607,77.604C84.945,77.603 83.444,78.352 82.388,79.52C81.328,80.689 80.687,82.283 80.687,84.026C80.687,84.579 81.135,85.026 81.687,85.026C82.239,85.026 82.687,84.579 82.687,84.026Z" style="fill:rgb(95,79,85);fill-rule:nonzero;"/>
        <path d="M101.604,94.731C99.965,94.731 98.625,93.391 98.625,91.753L98.625,85.145C98.625,83.508 99.965,82.167 101.604,82.167C103.241,82.167 104.581,83.508 104.581,85.145L104.581,91.753C104.581,93.391 103.241,94.731 101.604,94.731Z" style="fill:rgb(227,159,134);fill-rule:nonzero;"/>
        <path d="M83.373,96.882C83.434,97.041 84.199,98.77 86.866,100.417C89.533,102.067 94.057,103.628 101.604,103.627C109.148,103.628 113.512,102.069 116.025,100.399C118.54,98.733 119.135,96.963 119.181,96.788C119.336,96.258 119.033,95.702 118.503,95.547C117.973,95.391 117.417,95.695 117.262,96.225L117.261,96.225C117.195,96.385 116.681,97.682 114.502,98.996C112.322,100.306 108.426,101.627 101.604,101.627C94.326,101.627 90.198,100.127 87.919,98.717C86.778,98.01 86.093,97.323 85.697,96.834C85.499,96.589 85.373,96.394 85.301,96.269L85.231,96.138L85.221,96.118L84.835,96.289L85.227,96.131L85.221,96.118L84.835,96.289L85.227,96.131C85.019,95.619 84.436,95.372 83.924,95.579C83.412,95.787 83.166,96.37 83.373,96.882Z" style="fill:rgb(95,79,85);fill-rule:nonzero;"/>
        <path d="M83.398,229.583L94.267,229.583C94.267,229.583 97.376,232.053 97.346,237.085C97.333,239.238 95.534,240.957 93.381,240.957L68.878,240.957C68.878,240.957 51.037,241.437 51.037,227.465C51.037,209.537 67.605,215.735 67.605,221.913C67.605,221.913 59.481,216.32 59.818,224.763C60.156,233.207 83.398,229.583 83.398,229.583Z" style="fill:rgb(109,143,43);fill-rule:nonzero;"/>
        <path d="M92.952,231.385L81.606,230.274C79.796,230.047 78.427,228.812 78.427,227.511C78.427,226.21 79.796,225.151 81.606,225.158L92.225,225.158C95.181,225.169 96.341,226.768 96.341,228.667C96.341,230.565 95.908,231.755 92.952,231.385Z" style="fill:rgb(246,246,246);fill-rule:nonzero;"/>
        <path d="M168.279,83.686L156.212,85.099C154.715,85.274 153.347,84.192 153.171,82.695C152.997,81.198 154.078,79.83 155.575,79.654L167.642,78.242C169.139,78.067 170.507,79.148 170.683,80.645C170.858,82.143 169.776,83.511 168.279,83.686Z" style="fill:rgb(246,246,246);fill-rule:nonzero;"/>
        <path d="M162.916,81.6C159.422,82.137 156.117,80.825 153.914,76.734C151.711,72.642 148.616,72.433 148.668,70.544C148.721,68.656 153.022,69.705 155.068,71.908C155.068,71.908 151.029,61.416 153.127,59.266C155.226,57.115 157.691,68.603 157.691,68.603C157.691,68.603 155.645,56.748 158.215,56.066C160.786,55.384 161.73,66.767 161.73,66.767C161.73,66.767 161.573,58.689 163.933,58.532C166.293,58.374 165.297,68.818 165.297,68.818C165.297,68.818 166.451,61.551 168.077,61.51C169.703,61.469 171.91,80.563 162.916,81.6Z" style="fill:rgb(255,194,171);fill-rule:nonzero;"/>
        <path d="M455.652,415.573C455.652,443.535 431.533,466.203 401.78,466.203C372.028,466.203 347.909,443.535 347.909,415.573C347.909,387.611 372.028,364.943 401.78,364.943C431.533,364.943 455.652,387.611 455.652,415.573Z" style="fill:rgb(246,246,246);fill-rule:nonzero;"/>
        <path d="M401.78,364.943C385.037,364.943 370.077,372.123 360.196,383.384C367.857,397.351 383.596,406.937 401.78,406.937C419.965,406.937 435.704,397.351 443.364,383.384C433.483,372.122 418.524,364.943 401.78,364.943Z" style="fill:rgb(212,212,212);fill-rule:nonzero;"/>
        <path d="M432.721,343.263L464.819,324.632C465.363,324.317 465.723,323.772 465.8,323.149L470.061,288.874C470.197,287.778 469.419,286.778 468.323,286.642C467.227,286.506 466.228,287.284 466.091,288.38L461.953,321.671L430.713,339.803C429.757,340.358 429.433,341.582 429.987,342.537C430.542,343.493 431.765,343.817 432.721,343.263Z" style="fill:rgb(102,4,12);fill-rule:nonzero;"/>
        <path d="M464.774,324.658L468.721,322.504C469.69,321.974 470.047,320.759 469.518,319.79C468.989,318.82 467.774,318.463 466.805,318.992L462.857,321.147C461.888,321.676 461.531,322.891 462.06,323.86C462.589,324.83 463.804,325.187 464.774,324.658Z" style="fill:rgb(102,4,12);fill-rule:nonzero;"/>
        <path d="M464.577,287.728C465.871,286.738 466.121,284.869 465.131,283.574L459.482,276.188C458.493,274.893 456.624,274.644 455.329,275.634C454.034,276.623 453.785,278.492 454.775,279.787L460.423,287.174C461.413,288.469 463.282,288.718 464.577,287.728Z" style="fill:rgb(211,10,25);fill-rule:nonzero;"/>
        <path d="M467.79,292.677C473.133,293.39 478.088,289.602 478.8,284.259L479.501,279.004C480.214,273.661 476.426,268.706 471.082,267.993C465.739,267.28 460.785,271.069 460.072,276.412L459.371,281.667C458.658,287.01 462.447,291.965 467.79,292.677Z" style="fill:rgb(211,10,25);fill-rule:nonzero;"/>
        <path d="M460.83,295.22L473.84,296.955C475.605,297.19 477.242,295.939 477.478,294.174C477.713,292.409 476.462,290.772 474.696,290.537L461.686,288.802C459.921,288.565 458.284,289.817 458.049,291.582C457.813,293.348 459.064,294.984 460.83,295.22Z" style="fill:rgb(246,246,246);fill-rule:nonzero;"/>
        <path d="M448.329,357.731C448.329,381.35 427.489,400.496 401.78,400.496C376.072,400.496 355.231,381.35 355.231,357.731C355.231,334.112 376.072,314.966 401.78,314.966C427.489,314.966 448.329,334.112 448.329,357.731Z" style="fill:rgb(246,246,246);fill-rule:nonzero;"/>
        <path d="M372.622,318.218C372.622,318.218 364.927,323.073 363.531,333.359C363.531,333.359 368.55,347.839 401.78,347.839C435.011,347.839 438.268,331.191 438.268,331.191C438.268,331.191 438.943,317.22 420.331,314.966L372.622,318.218Z" style="fill:rgb(204,144,20);fill-rule:nonzero;"/>
        <path d="M382.813,323.553C382.813,323.553 370.661,337.36 378.573,369.168L394.355,371.565C394.355,371.565 383.92,344.536 394.703,328.248L382.813,323.553Z" style="fill:rgb(255,180,24);fill-rule:nonzero;"/>
        <path d="M415.801,314.575C415.801,314.575 430.941,325.021 430.986,357.797L416.258,363.954C416.258,363.954 419.821,335.199 405.406,322.017L415.801,314.575Z" style="fill:rgb(255,180,24);fill-rule:nonzero;"/>
        <path d="M437.449,302.146C437.449,320.352 421.479,335.109 401.78,335.109C382.081,335.109 366.111,320.352 366.111,302.146C366.111,283.941 382.081,269.183 401.78,269.183C421.479,269.183 437.449,283.941 437.449,302.146Z" style="fill:rgb(246,246,246);fill-rule:nonzero;"/>
        <path d="M381.605,262.701C381.605,265.619 379.239,267.985 376.32,267.985C373.402,267.985 371.036,265.619 371.036,262.701C371.036,259.783 373.402,257.416 376.32,257.416C379.239,257.416 381.605,259.783 381.605,262.701Z" style="fill:rgb(91,120,36);fill-rule:nonzero;"/>
        <path d="M428.266,279.329C428.266,279.329 414.932,258.956 375.897,262.007C375.897,262.007 382.08,271.582 370.969,282.561C370.969,282.561 421.247,282.989 428.266,279.329Z" style="fill:rgb(211,10,25);fill-rule:nonzero;"/>
        <path d="M389.811,296.622C389.811,298.484 388.301,299.994 386.438,299.994C384.576,299.994 383.066,298.484 383.066,296.622C383.066,294.76 384.576,293.25 386.438,293.25C388.301,293.25 389.811,294.76 389.811,296.622Z" style="fill:rgb(102,4,12);fill-rule:nonzero;"/>
        <path d="M386.438,295.967C386.438,296.596 385.929,297.105 385.3,297.105C384.671,297.105 384.162,296.596 384.162,295.967C384.162,295.338 384.671,294.828 385.3,294.828C385.929,294.828 386.438,295.338 386.438,295.967Z" style="fill:rgb(246,246,246);fill-rule:nonzero;"/>
        <path d="M421.568,296.622C421.568,298.484 420.059,299.994 418.196,299.994C416.335,299.994 414.825,298.484 414.825,296.622C414.825,294.76 416.335,293.25 418.196,293.25C420.059,293.25 421.568,294.76 421.568,296.622Z" style="fill:rgb(102,4,12);fill-rule:nonzero;"/>
        <path d="M418.196,295.967C418.196,296.596 417.687,297.105 417.059,297.105C416.43,297.105 415.92,296.596 415.92,295.967C415.92,295.338 416.43,294.828 417.059,294.828C417.687,294.828 418.196,295.338 418.196,295.967Z" style="fill:rgb(246,246,246);fill-rule:nonzero;"/>
        <path d="M403.301,298.746C399.698,298.746 392.498,306.021 415.875,319.349C416.456,319.68 417.138,319.108 416.906,318.481C414.957,313.206 408.906,298.206 403.301,298.746Z" style="fill:rgb(255,180,24);fill-rule:nonzero;"/>
        <path d="M397.494,314.189C396.84,315.6 395.443,316.429 393.985,316.43C393.441,316.43 392.889,316.314 392.362,316.07C390.95,315.416 390.121,314.02 390.121,312.561C390.121,312.017 390.236,311.466 390.48,310.939C390.596,310.688 390.487,310.391 390.237,310.275C389.986,310.159 389.689,310.268 389.573,310.518C389.266,311.179 389.12,311.876 389.121,312.561C389.12,314.396 390.166,316.154 391.941,316.977C392.602,317.284 393.299,317.43 393.985,317.43C395.82,317.43 397.577,316.385 398.401,314.61C398.517,314.359 398.408,314.062 398.158,313.946C397.907,313.83 397.61,313.939 397.494,314.189Z" style="fill:rgb(102,4,12);fill-rule:nonzero;"/>
        <path d="M379.312,312.953L374.741,312.953C372.096,312.953 369.931,310.788 369.931,308.143C369.931,305.497 372.096,303.332 374.741,303.332L379.312,303.332C381.957,303.332 384.122,305.497 384.122,308.143C384.122,310.788 381.957,312.953 379.312,312.953Z" style="fill:rgb(224,224,224);fill-rule:nonzero;"/>
        <path d="M428.735,312.953L424.165,312.953C421.519,312.953 419.354,310.788 419.354,308.143C419.354,305.497 421.519,303.332 424.165,303.332L428.735,303.332C431.381,303.332 433.546,305.497 433.546,308.143C433.546,310.788 431.381,312.953 428.735,312.953Z" style="fill:rgb(224,224,224);fill-rule:nonzero;"/>
        <path d="M433.546,287.146C400.112,274.676 367.437,293.25 367.437,293.25C367.437,293.25 364.739,290.338 367.262,285.316C368.437,282.979 370.43,281.152 372.801,280.046C379.842,276.762 399.26,269.663 424.578,276.494C427.824,277.369 430.678,279.475 432.177,282.483C432.812,283.758 433.319,285.3 433.546,287.146Z" style="fill:rgb(109,143,43);fill-rule:nonzero;"/>
        <path d="M373.385,404.477L350.587,406.404C346.583,406.742 343.03,403.743 342.691,399.739L341.226,382.384C340.887,378.379 343.886,374.826 347.891,374.488L370.688,372.562C374.691,372.224 378.245,375.223 378.583,379.227L380.05,396.582C380.388,400.587 377.389,404.14 373.385,404.477Z" style="fill:rgb(85,112,34);fill-rule:nonzero;"/>
        <path d="M363.703,405.296L360.268,405.586C359.836,405.623 359.453,405.299 359.416,404.867L356.852,374.522C356.815,374.09 357.14,373.706 357.571,373.67L361.007,373.38C361.438,373.344 361.822,373.667 361.858,374.099L364.423,404.444C364.459,404.876 364.135,405.26 363.703,405.296Z" style="fill:rgb(143,6,17);fill-rule:nonzero;"/>
        <path d="M378.583,379.227C378.582,379.22 378.582,379.214 378.581,379.207C378.582,379.214 378.582,379.22 378.583,379.227ZM378.58,379.198L378.58,379.188L378.58,379.198ZM378.579,379.177C378.578,379.174 378.578,379.172 378.578,379.169C378.578,379.172 378.578,379.174 378.579,379.177Z" style="fill:rgb(221,221,221);fill-rule:nonzero;"/>
        <path d="M379.853,394.249C375.776,393.331 369.627,392.063 363.269,390.785L361.872,374.264L373.613,372.917C376.276,373.814 378.305,376.212 378.578,379.169C378.578,379.172 378.578,379.174 378.579,379.177C378.579,379.18 378.579,379.184 378.58,379.188L378.58,379.198C378.581,379.201 378.581,379.204 378.581,379.207C378.582,379.214 378.582,379.22 378.583,379.227L379.853,394.249Z" style="fill:rgb(76,101,31);fill-rule:nonzero;"/>
        <path d="M341.574,386.518L341.226,382.384L341.575,386.518M341.223,382.358L341.223,382.35L341.223,382.358ZM341.221,382.332L341.221,382.323L341.221,382.332ZM341.219,382.306L341.219,382.297L341.219,382.306ZM341.217,382.278L341.217,382.272L341.217,382.278Z" style="fill:rgb(140,190,195);fill-rule:nonzero;"/>
        <path d="M358.14,389.761C351.641,388.47 345.448,387.266 341.574,386.518L341.226,382.384C341.225,382.375 341.224,382.366 341.223,382.358L341.223,382.35C341.222,382.344 341.222,382.338 341.221,382.332L341.221,382.323C341.22,382.317 341.22,382.312 341.219,382.306L341.219,382.297C341.218,382.291 341.218,382.284 341.217,382.278L341.217,382.272C341.216,382.263 341.216,382.255 341.215,382.246C341.064,379.945 342.017,377.811 343.618,376.358L356.879,374.837L358.14,389.761Z" style="fill:rgb(76,101,31);fill-rule:nonzero;"/>
        <path d="M363.269,390.785C361.562,390.442 359.841,390.099 358.14,389.761L356.879,374.837L361.872,374.264L363.269,390.785Z" style="fill:rgb(128,5,15);fill-rule:nonzero;"/>
        <path d="M377.049,380.172L342.896,383.057C340.316,383.275 338.026,381.342 337.809,378.762C337.591,376.182 339.523,373.892 342.104,373.674L376.256,370.788C378.836,370.57 381.126,372.503 381.344,375.083C381.562,377.664 379.629,379.953 377.049,380.172Z" style="fill:rgb(109,143,43);fill-rule:nonzero;"/>
        <path d="M362.89,381.368L357.056,381.86L356.263,372.478L362.097,371.984L362.89,381.368Z" style="fill:rgb(158,7,19);fill-rule:nonzero;"/>
        <path d="M355.105,370.368C355.105,370.368 348.541,374.807 341.546,372.855C334.552,370.903 335.966,363.685 341.024,362.184C347.625,360.225 354.75,366.161 354.75,366.161L355.105,370.368ZM338.905,359.225C331.672,361.501 329.717,372.68 339.76,375.777C349.803,378.874 359.165,372.057 359.165,372.057L358.613,365.529C358.613,365.529 348.345,356.253 338.905,359.225Z" style="fill:rgb(158,7,19);fill-rule:nonzero;"/>
        <path d="M362.522,365.504C362.522,365.504 368.55,358.457 375.386,359.28C380.624,359.912 383.229,366.79 376.662,369.888C370.094,372.986 362.878,369.711 362.878,369.711L362.522,365.504ZM358.607,365.529L359.158,372.057C359.158,372.057 369.532,377.207 378.913,372.469C388.294,367.73 384.491,357.038 376.979,356.008C367.174,354.661 358.607,365.529 358.607,365.529Z" style="fill:rgb(158,7,19);fill-rule:nonzero;"/>
        <path d="M354.611,370.396C354.611,370.396 348.743,374.062 347.54,388.11L352.036,390.629C352.036,390.629 352.891,377.791 357.814,372.346L354.611,370.396Z" style="fill:rgb(211,10,25);fill-rule:nonzero;"/>
        <path d="M362.918,371.674C362.7,371.888 362.487,372.106 362.283,372.333C362.194,372.431 362.125,372.514 362.066,372.584C361.855,372.87 361.879,372.811 362.066,372.584L362.206,372.391C361.785,372.982 361.304,373.488 360.779,373.909C364.047,379.341 365.729,386.36 365.729,386.36L369.739,383.123C368.145,376.982 365.973,373.078 364.065,370.634C363.673,370.97 363.286,371.312 362.918,371.674Z" style="fill:rgb(211,10,25);fill-rule:nonzero;"/>
        <path d="M365.406,367.672C365.712,371.298 363.021,374.485 359.396,374.791C355.771,375.098 352.583,372.407 352.276,368.781C351.971,365.156 354.661,361.969 358.287,361.662C361.912,361.355 365.1,364.047 365.406,367.672Z" style="fill:rgb(211,10,25);fill-rule:nonzero;"/>
        <path d="M362.009,337.43L339.661,347.13C339.084,347.38 338.664,347.879 338.514,348.489L330.301,382.038C330.038,383.111 330.695,384.194 331.768,384.456C332.84,384.719 333.923,384.062 334.186,382.989L342.164,350.404L363.602,341.099C364.615,340.659 365.08,339.482 364.64,338.468C364.201,337.455 363.023,336.99 362.009,337.43Z" style="fill:rgb(102,4,12);fill-rule:nonzero;"/>
        <path d="M339.71,347.11L334.169,349.342C333.145,349.755 332.649,350.92 333.062,351.945C333.475,352.969 334.64,353.465 335.664,353.052L341.205,350.82C342.229,350.407 342.725,349.242 342.312,348.217C341.899,347.193 340.734,346.697 339.71,347.11Z" style="fill:rgb(102,4,12);fill-rule:nonzero;"/>
        <path d="M338.529,382.747C337.633,384.108 338.013,385.955 339.374,386.852L347.139,391.968C348.499,392.864 350.347,392.484 351.243,391.124C352.14,389.763 351.76,387.916 350.399,387.02L342.635,381.903C341.273,381.007 339.427,381.387 338.529,382.747Z" style="fill:rgb(211,10,25);fill-rule:nonzero;"/>
        <path d="M333.866,379.132C328.587,380.218 325.155,385.426 326.241,390.705L327.309,395.898C328.395,401.178 333.603,404.609 338.883,403.523C344.162,402.438 347.594,397.229 346.508,391.95L345.44,386.757C344.354,381.478 339.146,378.046 333.866,379.132Z" style="fill:rgb(211,10,25);fill-rule:nonzero;"/>
        <path d="M339.602,374.439L326.745,377.084C325.001,377.442 323.867,379.163 324.226,380.907C324.585,382.651 326.305,383.785 328.049,383.426L340.906,380.782C342.65,380.424 343.784,378.703 343.425,376.959C343.066,375.215 341.346,374.081 339.602,374.439Z" style="fill:rgb(246,246,246);fill-rule:nonzero;"/>
        <path d="M410.2,355.892C410.2,357.408 408.971,358.637 407.455,358.637C405.938,358.637 404.71,357.408 404.71,355.892C404.71,354.376 405.938,353.146 407.455,353.146C408.971,353.146 410.2,354.376 410.2,355.892Z" style="fill:rgb(102,4,12);fill-rule:nonzero;"/>
        <path d="M408.758,391.327C408.758,392.844 407.528,394.073 406.012,394.073C404.496,394.073 403.267,392.844 403.267,391.327C403.267,389.812 404.496,388.582 406.012,388.582C407.528,388.582 408.758,389.812 408.758,391.327Z" style="fill:rgb(102,4,12);fill-rule:nonzero;"/>
        <path d="M412.695,367.704C412.695,369.655 411.113,371.236 409.162,371.236C407.211,371.236 405.63,369.655 405.63,367.704C405.63,365.753 407.211,364.171 409.162,364.171C411.113,364.171 412.695,365.753 412.695,367.704Z" style="fill:rgb(102,4,12);fill-rule:nonzero;"/>
        <path d="M413.077,379.516C413.077,381.467 411.496,383.049 409.545,383.049C407.594,383.049 406.012,381.467 406.012,379.516C406.012,377.564 407.594,375.983 409.545,375.983C411.496,375.983 413.077,377.564 413.077,379.516Z" style="fill:rgb(102,4,12);fill-rule:nonzero;"/>
        <path d="M107.706,165.306C107.706,165.711 107.377,166.039 106.972,166.039L95.766,166.039C95.361,166.039 95.033,165.711 95.033,165.306L95.033,156.723C95.033,156.318 95.361,155.99 95.766,155.99L106.972,155.99C107.377,155.99 107.706,156.318 107.706,156.723L107.706,165.306ZM109.083,153.779L93.655,153.779C93.084,153.779 92.621,154.242 92.621,154.813L92.621,167.215C92.621,167.787 93.084,168.25 93.655,168.25L109.083,168.25C109.654,168.25 110.117,167.787 110.117,167.215L110.117,154.813C110.117,154.242 109.654,153.779 109.083,153.779Z" style="fill:rgb(255,180,24);fill-rule:nonzero;"/>
        <path d="M110.071,162.413L102.768,162.413C101.999,162.413 101.37,161.784 101.37,161.014C101.37,160.245 101.999,159.616 102.768,159.616L110.071,159.616C110.84,159.616 111.47,160.245 111.47,161.014C111.47,161.784 110.84,162.413 110.071,162.413Z" style="fill:rgb(255,180,24);fill-rule:nonzero;"/>
        <path d="M82.65,302.122C77.672,298.753 71.332,298.973 66.654,302.173C65.422,307.704 67.575,313.672 72.553,317.04C77.531,320.409 83.872,320.19 88.548,316.99C89.781,311.459 87.627,305.491 82.65,302.122Z" style="fill:rgb(229,154,101);fill-rule:nonzero;"/>
        <path d="M80.534,305.248C77.373,303.108 73.459,303.08 70.648,304.876C70.026,308.152 71.507,311.775 74.668,313.915C77.83,316.055 81.744,316.083 84.554,314.287C85.177,311.011 83.696,307.388 80.534,305.248Z" style="fill:rgb(189,126,83);fill-rule:nonzero;"/>
        <path d="M127.025,302.122C132.003,298.753 138.344,298.973 143.021,302.173C144.253,307.704 142.1,313.672 137.122,317.04C132.145,320.409 125.804,320.19 121.126,316.99C119.895,311.459 122.048,305.491 127.025,302.122Z" style="fill:rgb(229,154,101);fill-rule:nonzero;"/>
        <path d="M129.141,305.248C132.303,303.108 136.216,303.08 139.027,304.876C139.649,308.152 138.168,311.775 135.007,313.915C131.845,316.055 127.931,316.083 125.121,314.287C124.499,311.011 125.979,307.388 129.141,305.248Z" style="fill:rgb(189,126,83);fill-rule:nonzero;"/>
        <path d="M71.477,392.062C71.477,392.062 73.871,432.547 87.83,454.246L97.306,454.246C97.306,454.246 91.371,432.79 99.978,415.181L71.477,392.062Z" style="fill:rgb(212,142,93);fill-rule:nonzero;"/>
        <path d="M97.306,454.246L87.83,454.246L92.568,462.993L96.192,460.398L101.84,462.993L97.306,454.246Z" style="fill:rgb(92,7,6);fill-rule:nonzero;"/>
        <path d="M138.198,392.062C138.198,392.062 135.805,432.547 121.846,454.246L112.37,454.246C112.37,454.246 118.304,432.79 109.697,415.181L138.198,392.062Z" style="fill:rgb(212,142,93);fill-rule:nonzero;"/>
        <path d="M112.37,454.246L121.846,454.246L117.107,462.993L113.483,460.398L107.835,462.993L112.37,454.246Z" style="fill:rgb(92,7,6);fill-rule:nonzero;"/>
        <path d="M90.476,336.492C90.476,336.492 81.324,340.965 64.112,336.492C46.9,332.02 48.442,312.32 48.442,312.32L36.368,315.316C36.368,315.316 35.401,366.988 91.502,351.688L90.476,336.492Z" style="fill:rgb(212,142,93);fill-rule:nonzero;"/>
        <path d="M138.681,386.667C138.681,403.583 123.563,417.297 104.913,417.297C86.263,417.297 71.144,403.583 71.144,386.667C71.144,369.75 86.263,326.483 104.913,326.483C123.563,326.483 138.681,369.75 138.681,386.667Z" style="fill:rgb(212,142,93);fill-rule:nonzero;"/>
        <path d="M126.818,382.615C126.818,394.895 117.011,404.849 104.913,404.849C92.815,404.849 83.007,394.895 83.007,382.615C83.007,370.337 92.815,338.932 104.913,338.932C117.011,338.932 126.818,370.337 126.818,382.615Z" style="fill:rgb(247,180,134);fill-rule:nonzero;"/>
        <path d="M123.509,333.451C118.526,338.029 117.786,345.684 121.922,351.039C124.047,353.789 126.307,357.389 128.395,362.045C135.132,377.073 120.005,387.369 120.005,387.369L129.164,394.359C129.164,394.359 167.063,365.127 123.509,333.451Z" style="fill:rgb(229,154,101);fill-rule:nonzero;"/>
        <path d="M129.164,394.359L120.816,401.051L118.51,396.496L111.784,393.635L120.005,387.369L129.164,394.359Z" style="fill:rgb(92,7,6);fill-rule:nonzero;"/>
        <path d="M130.198,316.992C130.198,331.944 118.877,344.065 104.913,344.065C90.948,344.065 79.627,331.944 79.627,316.992C79.627,302.04 90.948,280.576 104.913,280.576C118.877,280.576 130.198,302.04 130.198,316.992Z" style="fill:rgb(229,154,101);fill-rule:nonzero;"/>
        <path d="M104.495,332.402C104.499,332.443 104.536,333.719 105.234,335.049C105.584,335.712 106.108,336.392 106.885,336.903C107.66,337.415 108.68,337.746 109.967,337.745C110.156,337.745 110.35,337.738 110.551,337.723C113.369,337.525 115.239,336.193 116.364,334.922C117.494,333.65 117.912,332.444 117.927,332.404C118.017,332.143 117.878,331.859 117.617,331.769C117.356,331.678 117.072,331.817 116.982,332.078L116.98,332.083C116.946,332.179 116.53,333.272 115.521,334.363C114.508,335.454 112.932,336.548 110.48,336.726C110.302,336.739 110.131,336.745 109.967,336.745C108.847,336.743 108.043,336.467 107.435,336.068C106.526,335.471 106.034,334.556 105.774,333.766C105.644,333.373 105.573,333.016 105.536,332.761C105.517,332.634 105.507,332.532 105.501,332.464L105.495,332.388L105.494,332.369C105.485,332.093 105.254,331.877 104.978,331.886C104.702,331.895 104.486,332.126 104.495,332.402Z" style="fill:rgb(92,7,6);fill-rule:nonzero;"/>
        <path d="M104.332,332.369L104.33,332.407C104.317,332.631 104.203,333.767 103.593,334.787C103.288,335.299 102.868,335.782 102.275,336.141C101.681,336.5 100.909,336.744 99.858,336.745C99.694,336.745 99.523,336.739 99.346,336.726C96.815,336.542 95.215,335.383 94.209,334.257C93.708,333.695 93.363,333.141 93.145,332.731C93.036,332.527 92.959,332.358 92.91,332.244L92.858,332.114L92.846,332.083L92.844,332.078C92.754,331.817 92.469,331.678 92.208,331.769C91.947,331.859 91.809,332.143 91.899,332.405C91.914,332.444 92.332,333.65 93.462,334.922C94.587,336.193 96.456,337.525 99.274,337.723C99.475,337.738 99.67,337.745 99.858,337.745C101.145,337.746 102.166,337.415 102.941,336.903C104.108,336.133 104.699,334.998 105.002,334.08C105.305,333.158 105.33,332.433 105.331,332.402C105.34,332.126 105.124,331.895 104.848,331.886C104.572,331.877 104.341,332.093 104.332,332.369Z" style="fill:rgb(92,7,6);fill-rule:nonzero;"/>
        <path d="M111.784,271.755C111.784,270.713 111.071,269.838 110.111,269.57C110.601,268.702 110.486,267.579 109.75,266.843C109.013,266.105 107.89,265.991 107.022,266.481C106.755,265.521 105.88,264.808 104.838,264.808C103.796,264.808 102.921,265.521 102.653,266.481C101.786,265.991 100.663,266.105 99.926,266.843C99.189,267.579 99.075,268.702 99.564,269.57C98.605,269.838 97.891,270.713 97.891,271.755C97.891,272.796 98.605,273.671 99.564,273.938C99.075,274.807 99.189,275.93 99.926,276.666C100.663,277.402 101.786,277.518 102.654,277.027C102.921,277.987 103.796,278.7 104.838,278.7C105.88,278.7 106.755,277.987 107.022,277.027C107.89,277.518 109.013,277.402 109.75,276.666C110.486,275.93 110.601,274.807 110.111,273.938C111.071,273.671 111.784,272.796 111.784,271.755Z" style="fill:rgb(211,10,25);fill-rule:nonzero;"/>
        <path d="M86.448,289.457C86.448,289.457 87.137,270.675 104.907,270.675C122.676,270.675 123.227,289.457 123.227,289.457L86.448,289.457Z" style="fill:rgb(109,143,43);fill-rule:nonzero;"/>
        <path d="M115.261,326.193C115.261,330.25 110.628,333.539 104.913,333.539C99.198,333.539 94.565,330.25 94.565,326.193C94.565,322.136 99.198,318.847 104.913,318.847C110.628,318.847 115.261,322.136 115.261,326.193Z" style="fill:rgb(211,10,25);fill-rule:nonzero;"/>
        <path d="M104.913,323.882C104.913,325.158 103.465,326.193 101.679,326.193C99.893,326.193 98.444,325.158 98.444,323.882C98.444,322.606 99.893,321.571 101.679,321.571C103.465,321.571 104.913,322.606 104.913,323.882Z" style="fill:rgb(246,246,246);fill-rule:nonzero;"/>
        <path d="M95.567,310.172C95.567,311.851 94.207,313.211 92.528,313.211C90.85,313.211 89.489,311.851 89.489,310.172C89.489,308.493 90.85,307.133 92.528,307.133C94.207,307.133 95.567,308.493 95.567,310.172Z" style="fill:rgb(102,4,12);fill-rule:nonzero;"/>
        <path d="M92.528,309.581C92.528,310.148 92.069,310.607 91.502,310.607C90.936,310.607 90.476,310.148 90.476,309.581C90.476,309.015 90.936,308.556 91.502,308.556C92.069,308.556 92.528,309.015 92.528,309.581Z" style="fill:rgb(246,246,246);fill-rule:nonzero;"/>
        <path d="M120.336,310.172C120.336,311.851 118.976,313.211 117.297,313.211C115.619,313.211 114.258,311.851 114.258,310.172C114.258,308.493 115.619,307.133 117.297,307.133C118.976,307.133 120.336,308.493 120.336,310.172Z" style="fill:rgb(102,4,12);fill-rule:nonzero;"/>
        <path d="M117.297,309.581C117.297,310.148 116.838,310.607 116.271,310.607C115.705,310.607 115.245,310.148 115.245,309.581C115.245,309.015 115.705,308.556 116.271,308.556C116.838,308.556 117.297,309.015 117.297,309.581Z" style="fill:rgb(246,246,246);fill-rule:nonzero;"/>
        <path d="M104.913,280.53C124.584,280.53 130.687,292.541 125.222,294.188C119.756,295.836 112.164,293.316 104.913,293.316C97.662,293.316 90.069,295.836 84.604,294.188C79.139,292.541 85.241,280.53 104.913,280.53Z" style="fill:rgb(211,10,25);fill-rule:nonzero;"/>
        <path d="M90.043,295.418L76.309,285.87L79.33,277.273C79.517,276.74 79.558,276.168 79.448,275.613L77.54,265.999C77.201,264.291 75.543,263.176 73.832,263.52C72.123,263.858 71.012,265.519 71.352,267.228L73.092,275.995L70.935,282.134L70.92,282.124L62.563,262.094C61.891,260.485 60.043,259.724 58.436,260.397C56.828,261.067 56.068,262.915 56.739,264.522L61.773,276.587L57.936,277.255L48.914,271.336C47.458,270.382 45.5,270.786 44.545,272.244C43.59,273.7 43.996,275.656 45.453,276.612L55.518,283.215C56.035,283.554 56.637,283.731 57.248,283.731C57.428,283.731 57.609,283.715 57.789,283.685L64.264,282.557L65.452,285.403C65.684,285.959 66.069,286.436 66.563,286.779L86.441,300.599C86.99,300.98 87.618,301.163 88.239,301.163C89.237,301.163 90.219,300.69 90.832,299.81C91.827,298.379 91.473,296.413 90.043,295.418Z" style="fill:rgb(92,7,6);fill-rule:nonzero;"/>
        <path d="M119.783,295.418L133.517,285.87L130.496,277.273C130.308,276.74 130.268,276.168 130.378,275.613L132.286,265.999C132.625,264.291 134.282,263.176 135.994,263.52C137.703,263.858 138.813,265.519 138.474,267.228L136.733,275.995L138.891,282.134L138.905,282.124L147.263,262.094C147.935,260.485 149.783,259.724 151.389,260.397C152.998,261.067 153.757,262.915 153.086,264.522L148.053,276.587L151.89,277.255L160.912,271.336C162.368,270.382 164.325,270.786 165.28,272.244C166.235,273.7 165.83,275.656 164.373,276.612L154.308,283.215C153.791,283.554 153.188,283.731 152.578,283.731C152.397,283.731 152.216,283.715 152.036,283.685L145.561,282.557L144.374,285.403C144.142,285.959 143.756,286.436 143.263,286.779L123.385,300.599C122.835,300.98 122.208,301.163 121.586,301.163C120.588,301.163 119.607,300.69 118.993,299.81C117.999,298.379 118.353,296.413 119.783,295.418Z" style="fill:rgb(92,7,6);fill-rule:nonzero;"/>
        <path d="M36.368,315.316L36.368,303.765L41.763,304.897L48.715,301.163L48.442,312.32L36.368,315.316Z" style="fill:rgb(92,7,6);fill-rule:nonzero;"/>
        <path d="M465.422,173.058C454.347,126.599 431.892,110.092 414.554,104.502C427.378,98.944 436.353,86.178 436.353,71.31C436.353,51.336 420.161,35.144 400.187,35.144C380.213,35.144 364.021,51.336 364.021,71.31C364.021,86.488 373.375,99.474 386.629,104.838C386.496,104.912 386.358,104.977 386.228,105.052C381.131,104.091 375.833,102.184 371.229,98.655C361.312,91.051 356.118,76.862 355.792,56.484C355.659,48.231 348.828,41.652 340.61,41.781C332.359,41.913 325.776,48.71 325.907,56.962C326.387,86.927 335.516,108.934 353.044,122.373C359.535,127.35 366.52,130.562 373.376,132.595L374.391,147.068C374.391,149.464 374.631,151.859 374.347,156.192L374.335,156.242C374.259,156.645 371.494,196.919 354.137,223.579C349.634,230.495 351.59,239.752 358.506,244.256C361.365,246.117 364.622,246.875 367.779,246.635C372.263,246.295 376.542,243.945 379.184,239.887C393.729,217.547 396.338,190.888 400.663,174.696L400.687,174.696C405.012,190.887 409.443,219.052 425.636,240.228C428.577,244.075 433.022,246.094 437.519,246.094C440.684,246.094 443.875,245.092 446.584,243.021C453.141,238.007 454.392,228.628 449.378,222.072C430.25,197.059 427.167,157.026 427.014,156.237C426.887,155.569 426.702,154.928 426.493,154.3C426.565,153.944 426.63,153.585 426.687,153.224C430.577,160.444 433.824,169.399 436.349,179.989C437.985,186.853 444.113,191.471 450.873,191.471C452.02,191.471 453.187,191.337 454.352,191.06C462.38,189.146 467.336,181.086 465.422,173.058Z" style="fill:rgb(229,154,101);fill-rule:nonzero;"/>
        <path d="M457.652,180.685L458.93,181.471C459.853,179.971 460.333,178.267 460.332,176.539C460.332,175.803 460.245,175.063 460.071,174.333C454.842,152.392 447.037,137.519 438.518,127.485C430.004,117.449 420.779,112.284 412.867,109.737C410.687,109.034 409.171,107.056 409.061,104.769C409.056,104.679 409.054,104.589 409.054,104.5C409.054,102.319 410.349,100.33 412.366,99.456C423.595,94.59 430.853,83.54 430.853,71.31C430.85,54.397 417.1,40.647 400.186,40.644C383.273,40.647 369.524,54.397 369.521,71.31C369.518,83.857 377.055,95.033 388.693,99.74C390.66,100.536 391.994,102.394 392.12,104.513C392.126,104.622 392.129,104.732 392.129,104.841C392.13,106.835 391.045,108.687 389.281,109.657L389.282,109.656C389.187,109.708 389.087,109.761 388.981,109.816L388.954,109.83L388.911,109.853C388.087,110.314 387.161,110.552 386.228,110.552C385.886,110.552 385.546,110.521 385.207,110.457C378.463,109.184 372.653,106.675 367.883,103.019C362.28,98.721 357.991,92.732 355.031,84.988C352.075,77.248 350.47,67.756 350.293,56.573C350.202,51.434 345.988,47.288 340.848,47.279L340.836,47.279L340.711,47.28L340.699,47.28C335.539,47.366 331.409,51.578 331.406,56.721L331.407,56.878L331.407,56.874C331.632,70.875 333.815,83.033 337.978,93.268C342.137,103.499 348.294,111.804 356.39,118.008C361.778,122.14 368.025,125.271 374.941,127.322C377.139,127.974 378.703,129.923 378.863,132.21L379.878,146.684L379.877,146.678C379.886,146.81 379.891,146.941 379.891,147.068C379.891,147.733 379.911,148.382 379.931,149.059L379.931,149.057C379.957,149.95 379.986,150.927 379.986,152.063C379.986,153.33 379.95,154.795 379.835,156.552L379.835,156.549C379.826,156.69 379.812,156.827 379.793,156.96L379.784,157.04L379.781,157.074L379.781,157.072C379.338,162.109 378.075,173.375 374.917,186.44C371.762,199.505 366.701,214.368 358.746,226.58C357.714,228.163 357.218,229.956 357.219,231.72C357.217,234.803 358.73,237.838 361.507,239.647C363.041,240.646 364.823,241.179 366.646,241.178C366.885,241.178 367.126,241.169 367.363,241.151C370.314,240.932 372.966,239.363 374.574,236.886C385.198,220.558 389.167,201.559 392.354,186.45C393.358,181.676 394.305,177.186 395.35,173.276C395.992,170.87 398.173,169.195 400.663,169.196C403.156,169.194 405.362,170.877 406,173.276C406.751,176.09 407.506,179.255 408.307,182.617C412.073,198.369 417.213,220.137 430.005,236.886C431.796,239.236 434.56,240.598 437.519,240.594C439.593,240.596 441.593,239.917 443.243,238.652C445.24,237.128 446.538,234.889 446.868,232.398C446.924,231.976 446.952,231.552 446.952,231.131C446.953,229.073 446.277,227.069 445.009,225.413C436.537,214.341 431.003,200.596 427.444,187.984C423.882,175.373 422.286,163.903 421.608,157.388L421.608,157.386L421.588,157.2L421.558,157.02C421.487,156.712 421.394,156.394 421.274,156.035L421.275,156.037C421.088,155.474 420.993,154.887 420.993,154.299C420.993,153.934 421.03,153.568 421.103,153.208L421.103,153.207C421.159,152.931 421.21,152.652 421.254,152.369C421.621,150.037 423.435,148.199 425.762,147.802C426.073,147.749 426.383,147.723 426.689,147.723C428.684,147.723 430.559,148.813 431.529,150.615C435.643,158.249 439.076,167.709 441.699,178.714C442.712,182.977 446.496,185.974 450.873,185.971C451.611,185.971 452.352,185.882 453.077,185.71C455.52,185.13 457.616,183.612 458.93,181.471L457.652,180.685L456.375,179.899C455.466,181.373 454.063,182.388 452.382,182.791C451.881,182.911 451.371,182.971 450.873,182.971C447.879,182.967 445.319,180.944 444.617,178.018C441.946,166.817 438.443,157.124 434.17,149.192C432.669,146.408 429.777,144.723 426.689,144.723C426.215,144.723 425.736,144.763 425.257,144.845C421.661,145.458 418.858,148.298 418.291,151.902C418.253,152.139 418.21,152.375 418.162,152.613L418.163,152.611C418.049,153.169 417.993,153.735 417.993,154.299C417.993,155.208 418.139,156.114 418.428,156.983L418.429,156.985C418.528,157.282 418.591,157.505 418.635,157.695L420.097,157.358L418.605,157.515L418.624,157.7L418.624,157.698C419.316,164.335 420.931,175.957 424.557,188.799C428.186,201.64 433.817,215.709 442.626,227.235C443.498,228.378 443.951,229.725 443.952,231.131C443.952,231.419 443.933,231.709 443.894,232.001C443.663,233.718 442.795,235.215 441.421,236.269C440.276,237.142 438.946,237.592 437.519,237.594C435.472,237.59 433.628,236.679 432.388,235.064C420.104,219.021 414.966,197.661 411.226,181.922C410.424,178.559 409.665,175.373 408.898,172.502C407.9,168.775 404.51,166.197 400.663,166.196C396.814,166.196 393.445,168.783 392.451,172.501C391.377,176.527 390.423,181.057 389.418,185.832C386.245,200.937 382.298,219.539 372.06,235.249C370.946,236.953 369.176,238.001 367.137,238.16C366.974,238.172 366.808,238.178 366.646,238.178C365.406,238.178 364.199,237.819 363.143,237.132C361.249,235.899 360.221,233.835 360.219,231.72C360.219,230.513 360.554,229.302 361.26,228.216C369.496,215.559 374.623,200.414 377.833,187.145C381.039,173.875 382.316,162.478 382.77,157.336L382.77,157.334L382.773,157.3L381.278,157.17L382.763,157.381C382.794,157.169 382.815,156.959 382.829,156.751L382.829,156.748C382.948,154.923 382.986,153.387 382.986,152.063C382.986,150.877 382.956,149.862 382.93,148.97L382.93,148.968C382.909,148.29 382.891,147.671 382.891,147.068C382.891,146.869 382.883,146.673 382.871,146.48L382.87,146.474L381.856,132.001C381.608,128.465 379.191,125.454 375.794,124.446C369.203,122.491 363.296,119.522 358.215,115.627C350.567,109.76 344.748,101.941 340.757,92.137C336.768,82.335 334.626,70.545 334.407,56.826L334.407,56.823L334.406,56.721C334.403,53.22 337.233,50.333 340.747,50.28L340.734,50.28L340.859,50.279L340.847,50.279C344.331,50.272 347.245,53.139 347.293,56.621C347.477,68.061 349.111,77.891 352.228,86.058C355.342,94.222 359.961,100.728 366.058,105.4C371.238,109.373 377.511,112.059 384.652,113.405C385.174,113.504 385.702,113.552 386.228,113.552C387.671,113.552 389.1,113.185 390.376,112.471L389.644,111.162L390.333,112.494L390.361,112.48C390.478,112.419 390.6,112.355 390.725,112.286L390.727,112.285C393.453,110.785 395.129,107.926 395.129,104.841C395.129,104.673 395.125,104.505 395.115,104.336C394.92,101.061 392.859,98.191 389.819,96.96C379.303,92.699 372.525,82.648 372.521,71.31C372.522,63.68 375.621,56.772 380.634,51.757C385.649,46.744 392.557,43.645 400.186,43.644C407.816,43.645 414.724,46.744 419.74,51.757C424.753,56.772 427.852,63.68 427.853,71.31C427.852,82.345 421.307,92.311 411.173,96.704C408.055,98.056 406.054,101.126 406.054,104.5C406.054,104.638 406.057,104.776 406.064,104.915L406.064,104.914C406.235,108.449 408.578,111.507 411.946,112.592C419.385,114.995 428.075,119.823 436.231,129.426C444.384,139.03 452.006,153.44 457.153,175.029C457.273,175.533 457.332,176.038 457.332,176.539C457.331,177.715 457.01,178.864 456.375,179.899L457.652,180.685Z" style="fill:rgb(253,246,212);fill-rule:nonzero;"/>
        <path d="M390.354,65.893C390.354,67.572 388.992,68.932 387.314,68.932C385.636,68.932 384.275,67.572 384.275,65.893C384.275,64.215 385.636,62.854 387.314,62.854C388.992,62.854 390.354,64.215 390.354,65.893Z" style="fill:rgb(130,87,57);fill-rule:nonzero;"/>
        <path d="M387.314,65.303C387.314,65.87 386.854,66.329 386.288,66.329C385.722,66.329 385.262,65.87 385.262,65.303C385.262,64.736 385.722,64.277 386.288,64.277C386.854,64.277 387.314,64.736 387.314,65.303Z" style="fill:rgb(253,246,212);fill-rule:nonzero;"/>
        <path d="M415.122,65.893C415.122,67.572 413.762,68.932 412.083,68.932C410.404,68.932 409.044,67.572 409.044,65.893C409.044,64.215 410.404,62.854 412.083,62.854C413.762,62.854 415.122,64.215 415.122,65.893Z" style="fill:rgb(130,87,57);fill-rule:nonzero;"/>
        <path d="M412.083,65.303C412.083,65.87 411.624,66.329 411.057,66.329C410.49,66.329 410.031,65.87 410.031,65.303C410.031,64.736 410.49,64.277 411.057,64.277C411.624,64.277 412.083,64.736 412.083,65.303Z" style="fill:rgb(253,246,212);fill-rule:nonzero;"/>
        <path d="M411.243,80.403L411.568,80.613L411.245,80.4L411.243,80.403L411.568,80.613L411.245,80.4C411.235,80.417 410.315,81.802 408.379,83.163C406.438,84.524 403.502,85.874 399.337,85.876C395.106,85.874 392.142,84.481 390.203,83.098C389.235,82.406 388.53,81.715 388.073,81.205C387.844,80.95 387.677,80.74 387.571,80.599L387.456,80.441L387.432,80.406L387.428,80.4L387.105,80.613L387.43,80.403L387.428,80.4L387.105,80.613L387.43,80.403C387.13,79.939 386.511,79.806 386.047,80.106C385.583,80.406 385.45,81.025 385.75,81.489C385.798,81.562 386.829,83.141 389.039,84.724C391.245,86.307 394.655,87.879 399.337,87.876C404.018,87.879 407.428,86.307 409.634,84.724C411.844,83.141 412.875,81.562 412.923,81.489C413.223,81.025 413.09,80.406 412.626,80.106C412.162,79.806 411.543,79.939 411.243,80.403Z" style="fill:rgb(130,87,57);fill-rule:nonzero;"/>
        <path d="M384.625,75.75C384.625,77.891 382.89,79.625 380.75,79.625C378.61,79.625 376.875,77.891 376.875,75.75C376.875,73.61 378.61,71.875 380.75,71.875C382.89,71.875 384.625,73.61 384.625,75.75Z" style="fill:rgb(211,10,25);fill-rule:nonzero;"/>
        <path d="M424.25,75.75C424.25,77.891 422.515,79.625 420.375,79.625C418.235,79.625 416.5,77.891 416.5,75.75C416.5,73.61 418.235,71.875 420.375,71.875C422.515,71.875 424.25,73.61 424.25,75.75Z" style="fill:rgb(211,10,25);fill-rule:nonzero;"/>
        <path d="M403.579,121.087C403.579,122.83 402.167,124.241 400.425,124.241C398.684,124.241 397.271,122.83 397.271,121.087C397.271,119.346 398.684,117.934 400.425,117.934C402.167,117.934 403.579,119.346 403.579,121.087Z" style="fill:rgb(211,10,25);fill-rule:nonzero;"/>
        <path d="M403.579,137.85C403.579,139.592 402.167,141.004 400.425,141.004C398.684,141.004 397.271,139.592 397.271,137.85C397.271,136.108 398.684,134.697 400.425,134.697C402.167,134.697 403.579,136.108 403.579,137.85Z" style="fill:rgb(109,143,43);fill-rule:nonzero;"/>
        <path d="M334.079,76.135C334.148,76.149 336.993,76.842 340.512,76.845C342.301,76.843 344.27,76.666 346.162,76.086C348.047,75.507 349.887,74.501 351.24,72.814C351.759,72.168 351.655,71.224 351.009,70.705C350.363,70.187 349.419,70.291 348.9,70.937C348.024,72.03 346.772,72.758 345.279,73.219C343.793,73.678 342.097,73.846 340.512,73.845C338.952,73.845 337.5,73.686 336.451,73.527C335.925,73.448 335.501,73.369 335.211,73.311C335.066,73.281 334.956,73.258 334.883,73.241L334.803,73.223L334.784,73.219C333.979,73.024 333.169,73.519 332.974,74.324C332.779,75.129 333.274,75.94 334.079,76.135Z" style="fill:rgb(253,246,212);fill-rule:nonzero;"/>
        <path d="M442.409,172.002L441.674,171.42L442.395,172.019L442.409,172.002L441.674,171.42L442.395,172.019L442.398,172.016C442.508,171.888 445.394,168.669 456.124,165.407C456.916,165.166 457.364,164.329 457.123,163.536C456.882,162.743 456.044,162.296 455.251,162.537C443.424,166.131 440.301,169.833 440.058,170.139C439.543,170.788 439.652,171.731 440.302,172.246C440.951,172.76 441.895,172.651 442.409,172.002Z" style="fill:rgb(253,246,212);fill-rule:nonzero;"/>
        <path d="M427.038,229.032L427.047,229.021C427.181,228.867 428.665,227.191 430.951,225.424C433.235,223.651 436.32,221.812 439.562,221.218C440.376,221.067 440.914,220.284 440.763,219.47C440.612,218.655 439.829,218.117 439.015,218.268C434.921,219.036 431.406,221.25 428.875,223.238C426.347,225.233 424.804,227.029 424.761,227.078C424.222,227.707 424.294,228.654 424.923,229.194C425.551,229.733 426.498,229.661 427.038,229.032Z" style="fill:rgb(253,246,212);fill-rule:nonzero;"/>
        <path d="M380.279,225.578C380.198,225.35 379.508,223.723 377.191,222.072C374.877,220.417 370.987,218.755 364.583,218.248C363.757,218.182 363.034,218.799 362.969,219.624C362.903,220.45 363.519,221.173 364.345,221.238C370.341,221.716 373.656,223.234 375.447,224.513C376.344,225.154 376.866,225.74 377.158,226.137C377.304,226.335 377.392,226.487 377.439,226.574L377.48,226.656L378.374,226.29L377.469,226.628L377.48,226.656L378.374,226.29L377.469,226.628C377.759,227.404 378.623,227.798 379.399,227.508C380.175,227.218 380.569,226.354 380.279,225.578Z" style="fill:rgb(253,246,212);fill-rule:nonzero;"/>
        <path d="M429.639,146.054L429.627,146.001C429.497,145.417 428.391,140.144 428.394,134.356C428.393,132.081 428.564,129.73 429.014,127.572C429.462,125.413 430.191,123.458 431.247,121.944C431.72,121.264 431.552,120.329 430.872,119.856C430.192,119.383 429.257,119.551 428.784,120.231C427.416,122.202 426.584,124.532 426.077,126.961C425.572,129.392 425.394,131.933 425.394,134.356C425.397,140.922 426.701,146.654 426.713,146.717C426.896,147.525 427.699,148.032 428.507,147.849C429.315,147.666 429.822,146.862 429.639,146.054Z" style="fill:rgb(253,246,212);fill-rule:nonzero;"/>
        <path d="M365.564,122.436C365.614,122.38 367.175,120.693 368.799,117.926C370.419,115.16 372.122,111.304 372.338,106.877C372.378,106.05 371.739,105.347 370.911,105.307C370.084,105.268 369.381,105.907 369.342,106.734C369.168,110.458 367.683,113.907 366.212,116.408C365.479,117.658 364.754,118.67 364.219,119.361C363.952,119.707 363.731,119.973 363.581,120.148L363.411,120.343L363.363,120.397L363.47,120.495L363.364,120.396L363.363,120.397L363.47,120.495L363.364,120.396C362.801,121.004 362.837,121.953 363.444,122.516C364.052,123.079 365.001,123.043 365.564,122.436Z" style="fill:rgb(253,246,212);fill-rule:nonzero;"/>
        <path d="M381.332,153.65C381.332,153.65 404.915,157.207 420.116,154.542C420.116,154.542 420.731,160.345 421.205,163.159C421.205,163.159 400.342,167.979 380.542,160.972L381.332,153.65Z" style="fill:rgb(211,10,25);fill-rule:nonzero;"/>
        <path d="M381.332,153.65L380.959,156.122C381.027,156.13 393.577,158.029 406.47,158.032C411.305,158.031 416.188,157.767 420.548,157.005L420.116,154.542L417.63,154.806C417.631,154.812 417.785,156.271 418,158.089C418.216,159.912 418.488,162.074 418.74,163.574L421.205,163.159L420.642,160.723L420.634,160.725C420.338,160.794 413.638,162.277 404.475,162.275C397.599,162.277 389.346,161.438 381.376,158.615L380.542,160.972L383.028,161.24L383.818,153.918L381.332,153.65L380.959,156.122L381.332,153.65L378.846,153.382L378.056,160.704C377.932,161.852 378.619,162.944 379.708,163.329C388.407,166.404 397.199,167.273 404.475,167.275C414.484,167.273 421.643,165.622 421.768,165.595C423.054,165.298 423.889,164.046 423.67,162.744C423.449,161.43 423.176,159.284 422.966,157.502C422.86,156.609 422.769,155.801 422.705,155.218C422.64,154.635 422.602,154.28 422.602,154.279C422.529,153.587 422.177,152.965 421.621,152.546C421.065,152.127 420.37,151.96 419.685,152.08C415.76,152.769 411.116,153.034 406.47,153.032C400.265,153.033 394.051,152.569 389.404,152.104C387.08,151.871 385.148,151.638 383.8,151.465C383.126,151.378 382.598,151.305 382.241,151.255C382.063,151.23 381.927,151.21 381.836,151.197C381.746,151.184 381.705,151.178 381.705,151.178C381.035,151.077 380.342,151.256 379.806,151.67C379.269,152.084 378.919,152.708 378.846,153.382L381.332,153.65Z" style="fill:rgb(211,10,25);fill-rule:nonzero;"/>
        <path d="M260.104,475.395C259.672,475.837 259.301,476.325 258.995,476.848L258.53,476.606C258.463,476.309 258.182,476.104 257.872,476.141C257.54,476.179 257.303,476.479 257.342,476.81C257.381,477.141 257.682,477.378 258.013,477.339L258.196,477.286L258.647,477.521C258.396,478.074 258.215,478.659 258.108,479.265L258.854,479.396C259.084,478.09 259.704,476.89 260.646,475.924L260.104,475.395Z" style="fill:rgb(249,251,252);fill-rule:nonzero;"/>
        <path d="M265.592,473.093C265.421,473.093 265.251,473.099 265.082,473.109L265.009,472.483C265.196,472.334 265.305,472.094 265.274,471.839C265.228,471.445 264.872,471.164 264.479,471.211C264.086,471.257 263.805,471.613 263.851,472.006C263.881,472.26 264.04,472.467 264.256,472.569L264.329,473.194C263.615,473.31 262.926,473.525 262.27,473.84L262.597,474.523C263.53,474.077 264.538,473.851 265.592,473.851C266.088,473.851 266.585,473.903 267.066,474.008L267.228,473.268C266.692,473.151 266.142,473.093 265.592,473.093Z" style="fill:rgb(249,251,252);fill-rule:nonzero;"/>
        <path d="M272.194,475.64C272.525,475.599 272.761,475.298 272.72,474.967C272.679,474.637 272.378,474.401 272.048,474.441C271.738,474.479 271.512,474.745 271.518,475.051L271.102,475.413C270.684,474.983 270.212,474.601 269.693,474.274L269.29,474.916C270.424,475.63 271.311,476.642 271.854,477.841L272.544,477.528C272.293,476.974 271.977,476.456 271.602,475.983L272.004,475.632L272.194,475.64Z" style="fill:rgb(249,251,252);fill-rule:nonzero;"/>
        <path d="M265.044,483.301C264.658,483.324 264.27,483.335 263.887,483.335C263.007,483.335 262.154,483.274 261.407,483.156C261.019,483.095 260.562,483.001 260.139,482.864C261.185,484.726 263.208,485.989 265.526,485.989C268.382,485.989 270.789,484.073 271.477,481.485C270.795,481.935 269.971,482.311 269.018,482.608C267.839,482.976 266.464,483.216 265.044,483.301Z" style="fill:rgb(249,251,252);fill-rule:nonzero;"/>
        <path d="M268.17,480.215C267.42,480.215 266.81,479.604 266.81,478.854C266.81,478.104 267.42,477.494 268.17,477.494C268.92,477.494 269.53,478.104 269.53,478.854C269.53,479.604 268.92,480.215 268.17,480.215ZM263.433,481.123C262.412,481.123 261.583,480.294 261.583,479.273C261.583,478.254 262.412,477.424 263.433,477.424C264.452,477.424 265.282,478.254 265.282,479.273C265.282,480.294 264.452,481.123 263.433,481.123ZM265.592,474.608C262.239,474.608 259.512,477.274 259.512,480.552C259.512,480.978 259.558,481.401 259.648,481.813C260.323,482.296 262.355,482.703 264.997,482.544C267.876,482.371 270.294,481.587 271.669,480.386C271.663,480.19 271.648,479.996 271.624,479.804C271.243,476.842 268.65,474.608 265.592,474.608Z" style="fill:rgb(249,251,252);fill-rule:nonzero;"/>
        <path d="M281.595,476.476C281.301,476.359 280.79,476.167 280.213,476.238C279.662,476.307 279.369,476.579 279.369,477.245L279.369,478.11L281.597,478.11L281.597,479.828L279.369,479.828L279.369,485.283L277.438,485.283L277.438,479.828L276.098,479.828L276.098,478.11L277.438,478.11L277.438,477.223C277.438,475.543 278.333,474.439 280.006,474.439C280.648,474.439 281.163,474.562 281.596,474.748L281.595,476.476Z" style="fill:rgb(249,251,252);fill-rule:nonzero;"/>
        <path d="M286.298,479.808C286.121,479.777 285.94,479.762 285.771,479.762C284.876,479.762 284.262,480.31 284.262,481.375L284.262,485.283L282.33,485.283L282.33,478.11L284.202,478.11L284.202,478.896C284.654,478.222 285.343,477.918 286.224,477.918C286.638,477.918 287.071,478.046 287.317,478.255L286.298,479.808Z" style="fill:rgb(249,251,252);fill-rule:nonzero;"/>
        <path d="M288.851,481.02L292.025,481.02C291.849,480.102 291.293,479.584 290.464,479.584C289.554,479.584 289.021,480.132 288.851,481.02ZM293.965,481.686C293.965,481.908 293.95,482.174 293.928,482.337L288.844,482.337C289.051,483.373 289.776,483.824 290.687,483.824C291.308,483.824 291.981,483.573 292.499,483.137L293.632,484.38C292.817,485.127 291.781,485.468 290.575,485.468C288.377,485.468 286.853,483.973 286.853,481.716C286.853,479.458 288.333,477.918 290.479,477.918C292.544,477.918 293.958,479.45 293.965,481.686Z" style="fill:rgb(249,251,252);fill-rule:nonzero;"/>
        <path d="M296.504,481.02L299.679,481.02C299.502,480.102 298.946,479.584 298.117,479.584C297.207,479.584 296.674,480.132 296.504,481.02ZM301.618,481.686C301.618,481.908 301.604,482.174 301.581,482.337L296.497,482.337C296.704,483.373 297.429,483.824 298.34,483.824C298.961,483.824 299.635,483.573 300.153,483.137L301.285,484.38C300.471,485.127 299.435,485.468 298.229,485.468C296.03,485.468 294.506,483.973 294.506,481.716C294.506,479.458 295.986,477.918 298.132,477.918C300.197,477.918 301.611,479.45 301.618,481.686Z" style="fill:rgb(249,251,252);fill-rule:nonzero;"/>
        <path d="M304.287,481.693C304.287,482.825 305.034,483.669 306.13,483.669C307.27,483.669 307.98,482.788 307.98,481.693C307.98,480.598 307.27,479.717 306.13,479.717C305.034,479.717 304.287,480.561 304.287,481.693ZM309.964,481.693C309.964,483.847 308.469,485.468 306.493,485.468C305.53,485.468 304.85,485.091 304.384,484.535L304.384,488.243L302.459,488.243L302.459,478.11L304.347,478.11L304.347,478.902C304.813,478.318 305.501,477.918 306.485,477.918C308.469,477.918 309.964,479.539 309.964,481.693Z" style="fill:rgb(249,251,252);fill-rule:nonzero;"/>
        <path d="M312.809,485.283L310.877,485.283L310.877,478.11L312.809,478.11L312.809,485.283ZM313.067,475.765C313.067,476.46 312.527,476.993 311.831,476.993C311.136,476.993 310.603,476.46 310.603,475.765C310.603,475.069 311.136,474.521 311.831,474.521C312.527,474.521 313.067,475.069 313.067,475.765Z" style="fill:rgb(249,251,252);fill-rule:nonzero;"/>
        <path d="M316.032,480.664L318.733,478.11L321.103,478.11L317.623,481.486L321.124,485.283L318.748,485.283L316.032,482.382L316.032,485.283L314.101,485.283L314.101,474.625L316.032,474.625L316.032,480.664Z" style="fill:rgb(249,251,252);fill-rule:nonzero;"/>
        <path d="M184.413,483.299L184.413,480.091C184.017,479.476 183.167,478.948 182.289,478.948C180.868,478.948 180.018,480.12 180.018,481.688C180.018,483.255 180.868,484.412 182.289,484.412C183.167,484.412 184.017,483.914 184.413,483.299ZM184.413,485.218L184.413,484.163C183.885,484.881 183.021,485.394 182.025,485.394C180.179,485.394 178.875,483.987 178.875,481.688C178.875,479.432 180.165,477.967 182.025,477.967C182.977,477.967 183.841,478.436 184.413,479.212L184.413,475.447L185.511,475.447L185.511,485.218L184.413,485.218Z" style="fill:rgb(249,251,252);fill-rule:nonzero;"/>
        <path d="M190.403,478.876C188.895,478.876 188.147,480.149 188.089,481.233L192.732,481.233C192.718,480.179 192.015,478.876 190.403,478.876ZM186.932,481.673C186.932,479.622 188.396,477.967 190.418,477.967C192.557,477.967 193.816,479.637 193.816,481.761L193.816,482.039L188.089,482.039C188.177,483.372 189.114,484.485 190.638,484.485C191.443,484.485 192.264,484.163 192.82,483.592L193.348,484.31C192.645,485.013 191.692,485.394 190.535,485.394C188.44,485.394 186.932,483.885 186.932,481.673Z" style="fill:rgb(249,251,252);fill-rule:nonzero;"/>
        <path d="M194.607,484.28L195.178,483.489C195.647,484.031 196.541,484.5 197.507,484.5C198.591,484.5 199.177,483.987 199.177,483.284C199.177,481.57 194.797,482.625 194.797,480.003C194.797,478.904 195.75,477.967 197.434,477.967C198.635,477.967 199.485,478.421 200.056,478.993L199.543,479.755C199.119,479.241 198.342,478.86 197.434,478.86C196.467,478.86 195.867,479.344 195.867,479.974C195.867,481.526 200.246,480.501 200.246,483.255C200.246,484.441 199.294,485.394 197.463,485.394C196.306,485.394 195.325,485.042 194.607,484.28Z" style="fill:rgb(249,251,252);fill-rule:nonzero;"/>
        <path d="M201.667,485.218L201.667,478.143L202.766,478.143L202.766,485.218L201.667,485.218ZM201.477,476.399C201.477,475.99 201.814,475.653 202.209,475.653C202.62,475.653 202.956,475.99 202.956,476.399C202.956,476.811 202.62,477.132 202.209,477.132C201.814,477.132 201.477,476.811 201.477,476.399Z" style="fill:rgb(249,251,252);fill-rule:nonzero;"/>
        <path d="M209.708,483.182L209.708,480.091C209.328,479.476 208.478,478.948 207.6,478.948C206.178,478.948 205.329,480.076 205.329,481.644C205.329,483.196 206.178,484.339 207.6,484.339C208.478,484.339 209.328,483.797 209.708,483.182ZM204.582,487.034L205.139,486.214C205.725,486.917 206.428,487.181 207.438,487.181C208.61,487.181 209.708,486.609 209.708,485.057L209.708,484.046C209.196,484.764 208.332,485.306 207.335,485.306C205.49,485.306 204.187,483.929 204.187,481.644C204.187,479.373 205.475,477.967 207.335,477.967C208.288,477.967 209.138,478.436 209.708,479.212L209.708,478.143L210.807,478.143L210.807,485.013C210.807,487.356 209.167,488.089 207.438,488.089C206.237,488.089 205.417,487.854 204.582,487.034Z" style="fill:rgb(249,251,252);fill-rule:nonzero;"/>
        <path d="M217.413,485.218L217.413,480.589C217.413,479.344 216.784,478.948 215.832,478.948C214.967,478.948 214.146,479.476 213.737,480.048L213.737,485.218L212.638,485.218L212.638,478.143L213.737,478.143L213.737,479.168C214.235,478.583 215.201,477.967 216.256,477.967C217.735,477.967 218.512,478.714 218.512,480.252L218.512,485.218L217.413,485.218Z" style="fill:rgb(249,251,252);fill-rule:nonzero;"/>
        <path d="M223.404,478.876C221.896,478.876 221.148,480.149 221.09,481.233L225.733,481.233C225.718,480.179 225.015,478.876 223.404,478.876ZM219.933,481.673C219.933,479.622 221.397,477.967 223.419,477.967C225.557,477.967 226.817,479.637 226.817,481.761L226.817,482.039L221.09,482.039C221.178,483.372 222.115,484.485 223.639,484.485C224.444,484.485 225.264,484.163 225.821,483.592L226.349,484.31C225.646,485.013 224.693,485.394 223.536,485.394C221.441,485.394 219.933,483.885 219.933,481.673Z" style="fill:rgb(249,251,252);fill-rule:nonzero;"/>
        <path d="M233.35,483.299L233.35,480.091C232.954,479.476 232.105,478.948 231.226,478.948C229.805,478.948 228.956,480.12 228.956,481.688C228.956,483.255 229.805,484.412 231.226,484.412C232.105,484.412 232.954,483.914 233.35,483.299ZM233.35,485.218L233.35,484.163C232.823,484.881 231.958,485.394 230.962,485.394C229.117,485.394 227.813,483.987 227.813,481.688C227.813,479.432 229.102,477.967 230.962,477.967C231.914,477.967 232.779,478.436 233.35,479.212L233.35,475.447L234.449,475.447L234.449,485.218L233.35,485.218Z" style="fill:rgb(249,251,252);fill-rule:nonzero;"/>
        <path d="M242.9,484.412C244.335,484.412 245.185,483.255 245.185,481.688C245.185,480.12 244.335,478.948 242.9,478.948C242.036,478.948 241.171,479.476 240.791,480.091L240.791,483.299C241.171,483.914 242.036,484.412 242.9,484.412ZM239.692,485.218L239.692,475.447L240.791,475.447L240.791,479.212C241.362,478.436 242.211,477.967 243.178,477.967C245.024,477.967 246.328,479.432 246.328,481.688C246.328,483.987 245.024,485.394 243.178,485.394C242.182,485.394 241.318,484.881 240.791,484.163L240.791,485.218L239.692,485.218Z" style="fill:rgb(249,251,252);fill-rule:nonzero;"/>
        <path d="M247.528,486.99C247.689,487.063 247.954,487.107 248.129,487.107C248.612,487.107 248.935,486.946 249.184,486.36L249.653,485.291L246.693,478.143L247.88,478.143L250.238,483.943L252.582,478.143L253.783,478.143L250.238,486.653C249.813,487.679 249.096,488.074 248.158,488.089C247.924,488.089 247.558,488.045 247.353,487.986L247.528,486.99Z" style="fill:rgb(249,251,252);fill-rule:nonzero;"/>
    </g>
</svg>
